<svg width="18" height="16" viewBox="0 0 18 16" fill="none" xmlns="http://www.w3.org/2000/svg">
<path d="M17.7123 6.90407L11.2119 0.292327C11.0263 0.103594 10.779 0 10.5153 0C10.2513 0 10.0041 0.103743 9.81855 0.292327L9.22836 0.892758C9.04295 1.08119 8.9408 1.33289 8.9408 1.60125C8.9408 1.86946 9.04295 2.12964 9.22836 2.31808L13.0206 6.18367H0.972431C0.429216 6.18367 0 6.6162 0 7.16886V8.01771C0 8.57036 0.429216 9.04651 0.972431 9.04651H13.0636L9.22851 12.9337C9.0431 13.1224 8.94095 13.3673 8.94095 13.6356C8.94095 13.9037 9.0431 14.1521 9.22851 14.3407L9.8187 14.9392C10.0043 15.1279 10.2514 15.2308 10.5154 15.2308C10.7791 15.2308 11.0264 15.1266 11.212 14.9378L17.7124 8.32626C17.8984 8.13693 18.0007 7.88419 18 7.61553C18.0006 7.34598 17.8984 7.0931 17.7123 6.90407Z" fill="white"/>
</svg>
