<svg width="32" height="32" viewBox="0 0 32 32" fill="none" xmlns="http://www.w3.org/2000/svg">
<path d="M7.28771 14.9041L13.7881 8.29233C13.9737 8.10359 14.221 8 14.4847 8C14.7487 8 14.9959 8.10374 15.1814 8.29233L15.7716 8.89276C15.9571 9.08119 16.0592 9.33289 16.0592 9.60125C16.0592 9.86946 15.9571 10.1296 15.7716 10.3181L11.9794 14.1837H24.0276C24.5708 14.1837 25 14.6162 25 15.1689V16.0177C25 16.5704 24.5708 17.0465 24.0276 17.0465H11.9364L15.7715 20.9337C15.9569 21.1224 16.0591 21.3673 16.0591 21.6356C16.0591 21.9037 15.9569 22.1521 15.7715 22.3407L15.1813 22.9392C14.9957 23.1279 14.7486 23.2308 14.4846 23.2308C14.2209 23.2308 13.9736 23.1266 13.788 22.9378L7.28756 16.3263C7.10157 16.1369 6.99927 15.8842 7 15.6155C6.99942 15.346 7.10156 15.0931 7.28771 14.9041Z" fill="white"/>
<rect x="0.5" y="0.5" width="31" height="31" rx="7.5" stroke="white"/>
</svg>
