<svg width="18" height="16" viewBox="0 0 18 16" fill="none" xmlns="http://www.w3.org/2000/svg">
<path d="M0.287708 6.90407L6.78814 0.292327C6.9737 0.103594 7.22102 0 7.48472 0C7.74872 0 7.99589 0.103743 8.18145 0.292327L8.77164 0.892758C8.95705 1.08119 9.0592 1.33289 9.0592 1.60125C9.0592 1.86946 8.95705 2.12964 8.77164 2.31808L4.97938 6.18367H17.0276C17.5708 6.18367 18 6.6162 18 7.16886V8.01771C18 8.57036 17.5708 9.04651 17.0276 9.04651H4.93635L8.77149 12.9337C8.9569 13.1224 9.05905 13.3673 9.05905 13.6356C9.05905 13.9037 8.9569 14.1521 8.77149 14.3407L8.1813 14.9392C7.99574 15.1279 7.74857 15.2308 7.48458 15.2308C7.22087 15.2308 6.97356 15.1266 6.788 14.9378L0.287563 8.32626C0.101566 8.13693 -0.000728607 7.88419 3.8147e-06 7.61553C-0.000581741 7.34598 0.101564 7.0931 0.287708 6.90407Z" fill="white"/>
</svg>
