<svg width="32" height="32" viewBox="0 0 32 32" fill="none" xmlns="http://www.w3.org/2000/svg">
<path d="M24.7123 14.9041L18.2119 8.29233C18.0263 8.10359 17.779 8 17.5153 8C17.2513 8 17.0041 8.10374 16.8186 8.29233L16.2284 8.89276C16.0429 9.08119 15.9408 9.33289 15.9408 9.60125C15.9408 9.86946 16.0429 10.1296 16.2284 10.3181L20.0206 14.1837H7.97243C7.42922 14.1837 7 14.6162 7 15.1689V16.0177C7 16.5704 7.42922 17.0465 7.97243 17.0465H20.0636L16.2285 20.9337C16.0431 21.1224 15.9409 21.3673 15.9409 21.6356C15.9409 21.9037 16.0431 22.1521 16.2285 22.3407L16.8187 22.9392C17.0043 23.1279 17.2514 23.2308 17.5154 23.2308C17.7791 23.2308 18.0264 23.1266 18.212 22.9378L24.7124 16.3263C24.8984 16.1369 25.0007 15.8842 25 15.6155C25.0006 15.346 24.8984 15.0931 24.7123 14.9041Z" fill="black"/>
<rect x="-0.5" y="0.5" width="31" height="31" rx="7.5" transform="matrix(-1 0 0 1 31 0)" stroke="black"/>
</svg>
