<svg width="32" height="32" viewBox="0 0 32 32" fill="none" xmlns="http://www.w3.org/2000/svg">
<path d="M7.28771 14.8945L13.7881 7.26506C13.9737 7.04728 14.221 6.92773 14.4847 6.92773C14.7487 6.92773 14.9959 7.04745 15.1814 7.26506L15.7716 7.95791C15.9571 8.17535 16.0592 8.46579 16.0592 8.77546C16.0592 9.08496 15.9571 9.38519 15.7716 9.60263L11.9794 14.0632H24.0276C24.5708 14.0632 25 14.5624 25 15.2001V16.1796C25 16.8173 24.5708 17.3668 24.0276 17.3668H11.9364L15.7715 21.8523C15.9569 22.0701 16.0591 22.3526 16.0591 22.6623C16.0591 22.9716 15.9569 23.2583 15.7715 23.4759L15.1813 24.1665C14.9957 24.3843 14.7486 24.503 14.4846 24.503C14.2209 24.503 13.9736 24.3827 13.788 24.1649L7.28756 16.5356C7.10157 16.3172 6.99927 16.0255 7 15.7155C6.99942 15.4045 7.10156 15.1127 7.28771 14.8945Z" fill="black"/>
<rect x="0.5" y="0.5" width="31" height="31" rx="7.5" stroke="black"/>
</svg>
