<svg width="26" height="31" viewBox="0 0 26 31" fill="none" xmlns="http://www.w3.org/2000/svg">
<path d="M24.2548 21.2956C22.4404 19.762 21.4 17.5204 21.4 15.1456V11.8C21.4 7.5772 18.2632 4.0816 14.2 3.496V2.2C14.2 1.5364 13.6624 1 13 1C12.3376 1 11.8 1.5364 11.8 2.2V3.496C7.7356 4.0816 4.6 7.5772 4.6 11.8V15.1456C4.6 17.5204 3.5596 19.762 1.7344 21.3052C1.2676 21.7048 1 22.2856 1 22.9C1 24.058 1.942 25 3.1 25H22.9C24.058 25 25 24.058 25 22.9C25 22.2856 24.7324 21.7048 24.2548 21.2956Z" fill="white" stroke="black"/>
<path d="M12.9996 30.1424C15.1121 30.1424 16.8794 28.667 17.2853 26.7139H8.71387C9.11981 28.667 10.8871 30.1424 12.9996 30.1424Z" fill="black"/>
</svg>
