<svg width="40" height="40" viewBox="0 0 40 40" fill="none" xmlns="http://www.w3.org/2000/svg">
<path d="M20 1.25C16.2916 1.25 12.6665 2.34967 9.58307 4.40994C6.49964 6.47022 4.09641 9.39857 2.67727 12.8247C1.25812 16.2508 0.886812 20.0208 1.61028 23.6579C2.33376 27.2951 4.11952 30.636 6.74176 33.2583C9.36399 35.8805 12.7049 37.6663 16.3421 38.3897C19.9792 39.1132 23.7492 38.7419 27.1753 37.3227C30.6014 35.9036 33.5298 33.5004 35.5901 30.4169C37.6503 27.3335 38.75 23.7084 38.75 20C38.75 15.0272 36.7746 10.2581 33.2583 6.74175C29.742 3.22544 24.9728 1.25 20 1.25ZM20.8038 12.7675C22.5082 12.7695 24.1422 13.4474 25.3474 14.6526C26.5526 15.8578 27.2305 17.4918 27.2325 19.1963H25.625C25.6237 17.918 25.1153 16.6924 24.2114 15.7886C23.3076 14.8847 22.082 14.3763 20.8038 14.375V12.7675ZM26.01 31.25C25.9613 31.25 21.135 31.1675 14.9288 25.0712C8.83251 18.8675 8.75001 14.0388 8.75001 13.99C8.75001 13.3888 12.5 8.75 13.3288 8.75C13.6163 8.75 13.84 8.945 14.085 9.2375C14.675 9.94 17.2838 14.0575 17.1638 14.7437C17.1063 15.0662 16.8325 15.3112 16.0475 15.97C15.6607 16.2741 15.2987 16.6085 14.965 16.97C15.1248 17.6315 15.3623 18.2718 15.6725 18.8775C16.8282 21.2537 18.7483 23.1729 21.125 24.3275C21.7307 24.6377 22.371 24.8752 23.0325 25.035C23.394 24.7013 23.7284 24.3393 24.0325 23.9525C24.6913 23.1675 24.9363 22.8937 25.2588 22.8362C25.945 22.7112 30.0625 25.325 30.765 25.915C31.0575 26.165 31.2525 26.3837 31.2525 26.6712C31.25 27.5 26.6113 31.25 26.01 31.25ZM29.6425 19.1963C29.6399 16.8529 28.7078 14.6062 27.0508 12.9492C25.3938 11.2922 23.1471 10.3601 20.8038 10.3575V8.75C23.5733 8.75331 26.2284 9.85495 28.1867 11.8133C30.1451 13.7716 31.2467 16.4267 31.25 19.1963H29.6425Z" fill="url(#paint0_linear_452_343)"/>
<defs>
<linearGradient id="paint0_linear_452_343" x1="3.49251" y1="37.3337" x2="32.2613" y2="7.12625" gradientUnits="userSpaceOnUse">
<stop stop-color="#00A1E2"/>
<stop offset="1" stop-color="#00E0A5"/>
</linearGradient>
</defs>
</svg>
