<svg width="23" height="22" viewBox="0 0 23 22" fill="none" xmlns="http://www.w3.org/2000/svg">
<path fill-rule="evenodd" clip-rule="evenodd" d="M0.641602 3.84538C0.641602 1.72163 2.35922 0 4.47802 0H6.83889C8.95765 0 10.6753 1.72163 10.6753 3.84538V6.21176C10.6753 8.33548 8.95765 10.0571 6.83889 10.0571H4.47802C2.35922 10.0571 0.641602 8.33548 0.641602 6.21176V3.84538ZM4.47802 1.77479C3.33713 1.77479 2.41225 2.70182 2.41225 3.84538V6.21176C2.41225 7.35532 3.33713 8.28235 4.47802 8.28235H6.83889C7.97978 8.28235 8.90465 7.35532 8.90465 6.21176V3.84538C8.90465 2.70182 7.97978 1.77479 6.83889 1.77479H4.47802Z" fill="black"/>
<path fill-rule="evenodd" clip-rule="evenodd" d="M0.641602 15.7878C0.641602 13.664 2.35922 11.9424 4.47802 11.9424H6.83889C8.95765 11.9424 10.6753 13.664 10.6753 15.7878V18.1541C10.6753 20.2779 8.95765 21.9995 6.83889 21.9995H4.47802C2.35922 21.9995 0.641602 20.2779 0.641602 18.1541V15.7878ZM4.47802 13.7172C3.33713 13.7172 2.41225 14.6442 2.41225 15.7878V18.1541C2.41225 19.2977 3.33713 20.2247 4.47802 20.2247H6.83889C7.97978 20.2247 8.90465 19.2977 8.90465 18.1541V15.7878C8.90465 14.6442 7.97978 13.7172 6.83889 13.7172H4.47802Z" fill="black"/>
<path fill-rule="evenodd" clip-rule="evenodd" d="M12.5566 3.84538C12.5566 1.72163 14.2743 0 16.3931 0H18.7539C20.8727 0 22.5903 1.72163 22.5903 3.84538V6.21176C22.5903 8.33548 20.8727 10.0571 18.7539 10.0571H16.3931C14.2743 10.0571 12.5566 8.33548 12.5566 6.21176V3.84538ZM16.3931 1.77479C15.2522 1.77479 14.3273 2.70182 14.3273 3.84538V6.21176C14.3273 7.35532 15.2522 8.28235 16.3931 8.28235H18.7539C19.8948 8.28235 20.8197 7.35532 20.8197 6.21176V3.84538C20.8197 2.70182 19.8948 1.77479 18.7539 1.77479H16.3931Z" fill="black"/>
<path fill-rule="evenodd" clip-rule="evenodd" d="M12.5566 15.7878C12.5566 13.664 14.2743 11.9424 16.3931 11.9424H18.7539C20.8727 11.9424 22.5903 13.664 22.5903 15.7878V18.1541C22.5903 20.2779 20.8727 21.9995 18.7539 21.9995H16.3931C14.2743 21.9995 12.5566 20.2779 12.5566 18.1541V15.7878ZM16.3931 13.7172C15.2522 13.7172 14.3273 14.6442 14.3273 15.7878V18.1541C14.3273 19.2977 15.2522 20.2247 16.3931 20.2247H18.7539C19.8948 20.2247 20.8197 19.2977 20.8197 18.1541V15.7878C20.8197 14.6442 19.8948 13.7172 18.7539 13.7172H16.3931Z" fill="black"/>
</svg>
