<svg width="22" height="22" viewBox="0 0 22 22" fill="none" xmlns="http://www.w3.org/2000/svg">
<path fill-rule="evenodd" clip-rule="evenodd" d="M0 3.84538C0 1.72163 1.72163 0 3.84538 0H6.21176C8.33548 0 10.0571 1.72163 10.0571 3.84538V6.21176C10.0571 8.33548 8.33548 10.0571 6.21176 10.0571H3.84538C1.72163 10.0571 0 8.33548 0 6.21176V3.84538ZM3.84538 1.77479C2.70182 1.77479 1.77479 2.70182 1.77479 3.84538V6.21176C1.77479 7.35532 2.70182 8.28235 3.84538 8.28235H6.21176C7.35532 8.28235 8.28235 7.35532 8.28235 6.21176V3.84538C8.28235 2.70182 7.35532 1.77479 6.21176 1.77479H3.84538Z" fill="url(#paint0_linear_449_634)"/>
<path fill-rule="evenodd" clip-rule="evenodd" d="M0 15.7878C0 13.664 1.72163 11.9424 3.84538 11.9424H6.21176C8.33548 11.9424 10.0571 13.664 10.0571 15.7878V18.1541C10.0571 20.2779 8.33548 21.9995 6.21176 21.9995H3.84538C1.72163 21.9995 0 20.2779 0 18.1541V15.7878ZM3.84538 13.7172C2.70182 13.7172 1.77479 14.6442 1.77479 15.7878V18.1541C1.77479 19.2977 2.70182 20.2247 3.84538 20.2247H6.21176C7.35532 20.2247 8.28235 19.2977 8.28235 18.1541V15.7878C8.28235 14.6442 7.35532 13.7172 6.21176 13.7172H3.84538Z" fill="url(#paint1_linear_449_634)"/>
<path fill-rule="evenodd" clip-rule="evenodd" d="M11.9424 3.84538C11.9424 1.72163 13.664 0 15.7878 0H18.1541C20.2779 0 21.9995 1.72163 21.9995 3.84538V6.21176C21.9995 8.33548 20.2779 10.0571 18.1541 10.0571H15.7878C13.664 10.0571 11.9424 8.33548 11.9424 6.21176V3.84538ZM15.7878 1.77479C14.6442 1.77479 13.7172 2.70182 13.7172 3.84538V6.21176C13.7172 7.35532 14.6442 8.28235 15.7878 8.28235H18.1541C19.2977 8.28235 20.2247 7.35532 20.2247 6.21176V3.84538C20.2247 2.70182 19.2977 1.77479 18.1541 1.77479H15.7878Z" fill="url(#paint2_linear_449_634)"/>
<path fill-rule="evenodd" clip-rule="evenodd" d="M11.9424 15.7878C11.9424 13.664 13.664 11.9424 15.7878 11.9424H18.1541C20.2779 11.9424 21.9995 13.664 21.9995 15.7878V18.1541C21.9995 20.2779 20.2779 21.9995 18.1541 21.9995H15.7878C13.664 21.9995 11.9424 20.2779 11.9424 18.1541V15.7878ZM15.7878 13.7172C14.6442 13.7172 13.7172 14.6442 13.7172 15.7878V18.1541C13.7172 19.2977 14.6442 20.2247 15.7878 20.2247H18.1541C19.2977 20.2247 20.2247 19.2977 20.2247 18.1541V15.7878C20.2247 14.6442 19.2977 13.7172 18.1541 13.7172H15.7878Z" fill="url(#paint3_linear_449_634)"/>
<defs>
<linearGradient id="paint0_linear_449_634" x1="5.02857" y1="0" x2="5.02857" y2="10.0571" gradientUnits="userSpaceOnUse">
<stop stop-color="#5E609C"/>
<stop offset="1" stop-color="#5ED6D7"/>
</linearGradient>
<linearGradient id="paint1_linear_449_634" x1="5.02857" y1="11.9424" x2="5.02857" y2="21.9995" gradientUnits="userSpaceOnUse">
<stop stop-color="#5E609C"/>
<stop offset="1" stop-color="#5ED6D7"/>
</linearGradient>
<linearGradient id="paint2_linear_449_634" x1="16.971" y1="0" x2="16.971" y2="10.0571" gradientUnits="userSpaceOnUse">
<stop stop-color="#5E609C"/>
<stop offset="1" stop-color="#5ED6D7"/>
</linearGradient>
<linearGradient id="paint3_linear_449_634" x1="16.971" y1="11.9424" x2="16.971" y2="21.9995" gradientUnits="userSpaceOnUse">
<stop stop-color="#5E609C"/>
<stop offset="1" stop-color="#5ED6D7"/>
</linearGradient>
</defs>
</svg>
