<svg width="23" height="23" viewBox="0 0 23 23" fill="none" xmlns="http://www.w3.org/2000/svg">
<path fill-rule="evenodd" clip-rule="evenodd" d="M13.2929 1.70719L21.2929 9.70707L22.7071 8.29285L14.7071 0.292969L13.2929 1.70719ZM0 4.97616C0 3.3193 1.34315 1.97616 3 1.97616H8.8458C10.1699 1.97616 11.44 2.50138 12.3773 3.43661L18.8715 9.91602C20.8279 11.868 20.8297 15.0369 18.8755 16.9911L15.0149 20.8516C13.0608 22.8058 9.89183 22.804 7.93986 20.8476L1.46045 14.3535C0.525225 13.4161 0 12.1461 0 10.822V4.97616ZM3 3.97616C2.44772 3.97616 2 4.42387 2 4.97616V10.822C2 11.6164 2.31514 12.3785 2.87627 12.9409L9.35568 19.435C10.5269 20.6088 12.4282 20.6099 13.6007 19.4374L17.4613 15.5769C18.6338 14.4044 18.6327 12.503 17.4588 11.3318L10.9647 4.85243C10.4023 4.29129 9.64027 3.97616 8.8458 3.97616H3ZM6 7.00008C6 7.55237 5.55228 8.00008 5 8.00008C4.44772 8.00008 4 7.55237 4 7.00008C4 6.4478 4.44772 6.00008 5 6.00008C5.55228 6.00008 6 6.4478 6 7.00008Z" fill="#5E609C"/>
</svg>
