<svg width="19" height="18" viewBox="0 0 19 18" fill="none" xmlns="http://www.w3.org/2000/svg">
<path d="M12.6516 9.00058L18.2202 3.43203C18.8355 2.81677 18.8355 1.81927 18.2202 1.20496L17.4778 0.462603C16.8624 -0.152855 15.8649 -0.152855 15.2506 0.462603L9.68222 6.03096L4.11367 0.46145C3.49841 -0.153817 2.50091 -0.153817 1.8866 0.46145L1.14309 1.20381C0.527824 1.81927 0.527824 2.81677 1.14309 3.43107L6.7126 9.00058L1.14424 14.5689C0.528785 15.1844 0.528785 16.1819 1.14424 16.7962L1.8866 17.5386C2.50187 18.1538 3.49937 18.1538 4.11367 17.5386L9.68222 11.97L15.2506 17.5386C15.866 18.1538 16.8635 18.1538 17.4778 17.5386L18.2202 16.7962C18.8355 16.1807 18.8355 15.1832 18.2202 14.5689L12.6516 9.00058Z" fill="#BDBDBD"/>
</svg>
