<svg width="32" height="32" viewBox="0 0 32 32" fill="none" xmlns="http://www.w3.org/2000/svg">
<path d="M4.74609 13.918V16.2814L13.8997 24.122C14.0246 24.2259 14.1051 24.3735 14.1248 24.5347V32.0001L17.8763 29.9367V24.5346C17.896 24.3734 17.9765 24.2258 18.1014 24.1219L27.255 16.2814V13.918L4.74609 13.918Z" fill="black"/>
<path d="M7.48454 10.429C8.5412 10.429 9.3978 9.57245 9.3978 8.51579C9.3978 7.45913 8.5412 6.60254 7.48454 6.60254C6.42788 6.60254 5.57129 7.45913 5.57129 8.51579C5.57129 9.57245 6.42788 10.429 7.48454 10.429Z" fill="black"/>
<path d="M19.9395 8.29069C19.9393 9.6374 21.0309 10.7293 22.3776 10.7294C23.7243 10.7296 24.8162 9.63797 24.8163 8.29127C24.8165 6.94456 23.7249 5.85268 22.3782 5.85254C21.046 5.8524 19.9602 6.92143 19.9397 8.2535C19.9395 8.26592 19.9395 8.27827 19.9395 8.29069Z" fill="black"/>
<path d="M14.8378 6.45287C15.48 6.45287 16.0007 5.9322 16.0007 5.28991C16.0007 4.64763 15.48 4.12695 14.8378 4.12695C14.1955 4.12695 13.6748 4.64763 13.6748 5.28991C13.6748 5.9322 14.1955 6.45287 14.8378 6.45287Z" fill="black"/>
<path d="M19.3397 2.32592C19.982 2.32592 20.5027 1.80526 20.5027 1.16296C20.5027 0.520661 19.982 0 19.3397 0C18.6974 0 18.1768 0.520661 18.1768 1.16296C18.1768 1.80526 18.6975 2.32592 19.3397 2.32592Z" fill="black"/>
</svg>
