<svg width="24" height="24" viewBox="0 0 24 24" fill="none" xmlns="http://www.w3.org/2000/svg">
<path d="M19.7211 21.1262C17.6398 22.884 14.9399 23.9996 12.0008 23.9996C7.62734 23.9996 3.78823 21.5902 1.70703 18.0746L2.48619 14.483L5.93984 13.8418C6.74141 16.4293 9.16011 18.3277 12.0008 18.3277C13.3789 18.3277 14.6586 17.8918 15.7133 17.1184L19.032 17.6246L19.7211 21.1262Z" fill="#59C36A"/>
<path d="M19.7203 21.127L19.0312 17.6254L15.7125 17.1191C14.6578 17.8926 13.3781 18.3285 12 18.3285V24.0004C14.9391 24.0004 17.6391 22.8848 19.7203 21.127Z" fill="#00A66C"/>
<path d="M5.67188 11.9998C5.67188 12.6466 5.77031 13.2654 5.93906 13.842L1.70625 18.0748C0.651562 16.3029 0 14.2216 0 11.9998C0 9.77788 0.651562 7.69668 1.70625 5.9248L5.10342 6.50948L5.93906 10.1576C5.77031 10.7341 5.67188 11.3529 5.67188 11.9998Z" fill="#FFDA2D"/>
<path d="M24 12C24 15.6562 22.3079 18.9328 19.7203 21.1266L15.7125 17.1188C16.5281 16.5281 17.2172 15.7406 17.6672 14.8125H12C11.6062 14.8125 11.2969 14.5031 11.2969 14.1094V9.89062C11.2969 9.49683 11.6062 9.1875 12 9.1875H23.1C23.4375 9.1875 23.7328 9.42652 23.7891 9.76402C23.9297 10.4953 24 11.2546 24 12Z" fill="#4086F4"/>
<path d="M17.6672 14.8125C17.2172 15.7406 16.5281 16.5281 15.7125 17.1188L19.7203 21.1266C22.3079 18.9328 24 15.6562 24 12C24 11.2546 23.9297 10.4953 23.789 9.76402C23.7328 9.42652 23.4375 9.1875 23.1 9.1875H12V14.8125H17.6672Z" fill="#4175DF"/>
<path d="M19.918 3.35152C19.932 3.54839 19.8477 3.73125 19.7211 3.87183L16.7117 6.86714C16.4727 7.12027 16.079 7.14839 15.7977 6.93745C14.6867 6.10781 13.3789 5.67188 12.0008 5.67188C9.16011 5.67188 6.74141 7.57027 5.93984 10.1578L1.70703 5.925C3.78823 2.40938 7.62734 0 12.0008 0C14.7992 0 17.5273 1.03125 19.6648 2.8312C19.8195 2.95781 19.9039 3.15464 19.918 3.35152Z" fill="#FF641A"/>
<path d="M15.7969 6.93745C16.0781 7.14844 16.4718 7.12027 16.7109 6.86714L19.7203 3.87183C19.8469 3.73125 19.9313 3.54844 19.9171 3.35152C19.903 3.15459 19.8187 2.95781 19.664 2.8312C17.5266 1.03125 14.7984 0 12 0V5.67188C13.3781 5.67188 14.6859 6.10781 15.7969 6.93745Z" fill="#F03800"/>
</svg>
