<svg width="19" height="19" viewBox="0 0 19 19" fill="none" xmlns="http://www.w3.org/2000/svg">
<path fill-rule="evenodd" clip-rule="evenodd" d="M0 9.5C0 4.24928 4.24891 0 9.5 0C14.7507 0 19 4.24891 19 9.5C19 14.7507 14.7511 19 9.5 19C4.24928 19 0 14.7511 0 9.5ZM1.48438 9.5C1.48438 13.9303 5.0694 17.5156 9.5 17.5156C13.9303 17.5156 17.5156 13.9306 17.5156 9.5C17.5156 5.0697 13.9306 1.48438 9.5 1.48438C5.0697 1.48438 1.48438 5.0694 1.48438 9.5Z" fill="black"/>
<path d="M9.56586 8.3125C8.94644 8.3125 8.44434 8.62747 8.44434 9.01602V13.5465C8.44434 13.935 8.94644 14.25 9.56586 14.25C10.1853 14.25 10.6874 13.935 10.6874 13.5464V9.01602C10.6874 8.62747 10.1853 8.3125 9.56586 8.3125Z" fill="black"/>
<circle cx="9.56586" cy="6.00336" r="1.12153" fill="black"/>
</svg>
