<svg width="24" height="24" viewBox="0 0 24 24" fill="none" xmlns="http://www.w3.org/2000/svg">
<g clip-path="url(#clip0_1_5410)">
<path d="M13.8337 6.66634C15.3064 6.66634 16.5003 5.47243 16.5003 3.99967C16.5003 2.52692 15.3064 1.33301 13.8337 1.33301C12.3609 1.33301 11.167 2.52692 11.167 3.99967C11.167 5.47243 12.3609 6.66634 13.8337 6.66634Z" fill="#363636"/>
<path d="M16.5603 17.4866C16.4866 17.437 16.4038 17.4027 16.3167 17.3855C16.2295 17.3684 16.1399 17.3689 16.0529 17.3869C15.966 17.4049 15.8835 17.4401 15.8104 17.4904C15.7372 17.5407 15.6749 17.6051 15.6269 17.6799C14.9825 18.6343 14.193 19.4823 13.2869 20.1932C13.0669 20.3599 12.2469 20.9932 11.9003 20.8599C11.6603 20.7866 11.8003 20.3132 11.8469 20.1132L12.2003 19.0666C12.3469 18.6399 14.9003 11.0666 15.1803 10.1999C15.5936 8.93322 15.4136 7.68655 13.5269 7.98655C13.0136 8.03989 7.80694 8.71322 7.71361 8.71989C7.62606 8.72558 7.54049 8.74845 7.46178 8.78722C7.38308 8.82598 7.31278 8.87986 7.25489 8.94579C7.19701 9.01172 7.15268 9.0884 7.12444 9.17146C7.09619 9.25453 7.08458 9.34234 7.09027 9.42989C7.09596 9.51743 7.11884 9.603 7.1576 9.68171C7.19636 9.76042 7.25025 9.83072 7.31618 9.8886C7.38211 9.94648 7.45879 9.99081 7.54185 10.0191C7.62491 10.0473 7.71273 10.0589 7.80027 10.0532C7.80027 10.0532 9.80027 9.79322 10.0203 9.77322C10.133 9.76222 10.2464 9.78406 10.347 9.83611C10.4475 9.88816 10.5309 9.96819 10.5869 10.0666C10.7077 10.44 10.6912 10.8443 10.5403 11.2066C10.3669 11.8732 7.62694 19.5932 7.54027 20.0399C7.44732 20.4137 7.47313 20.8071 7.61411 21.1656C7.7551 21.524 8.00425 21.8296 8.32694 22.0399C8.93261 22.4436 9.65377 22.6379 10.3803 22.5932C11.0867 22.5846 11.7852 22.4444 12.4403 22.1799C14.1003 21.5132 15.8336 19.7399 16.7469 18.3466C16.8256 18.205 16.85 18.0396 16.8157 17.8814C16.7813 17.7231 16.6905 17.5828 16.5603 17.4866Z" fill="#363636"/>
</g>
<defs>
<clipPath id="clip0_1_5410">
<rect width="24" height="24" fill="white"/>
</clipPath>
</defs>
</svg>
