<svg width="26" height="26" viewBox="0 0 26 26" fill="none" xmlns="http://www.w3.org/2000/svg">
<path d="M26 13C26 15.2536 25.4714 17.3973 24.4189 19.2182C22.0354 23.3418 11.1709 25.3732 13.8327 13.6584C17.982 13.421 21.7162 12.531 21.7723 9.25181C20.0871 10.1535 17.1776 10.3183 14.5743 10.3814C15.2397 8.88682 16.5587 7.27888 17.713 5.48606C13.5005 4.6031 11.2832 7.35373 10.5312 10.4961C6.73156 10.64 3.32016 11.2271 3.32016 14.1964C3.55991 14.0911 3.86398 14.0093 4.22067 13.9473C5.51879 13.7204 7.52209 13.7438 9.71722 13.745C8.60975 20.2906 10.9522 25.841 16.5295 25.5147C16.1132 25.6316 15.6898 25.7287 15.2583 25.8047C15.2524 25.8059 15.2477 25.807 15.2431 25.807C14.9706 25.855 14.6946 25.8936 14.4174 25.9228C13.952 25.9743 13.4783 26 13 26C5.82053 26 0 20.1795 0 13C0 5.83808 5.79129 0.0292377 12.9462 0.0011731C12.9637 0 12.9825 0 13 0C20.1795 -2.26787e-08 26 5.82053 26 13Z" fill="#8BCFDA"/>
<path d="M26 13C26 15.2536 25.4714 17.3973 24.4189 19.2182C22.0354 23.3418 11.1709 25.3732 13.8327 13.6584C17.982 13.421 21.7162 12.531 21.7723 9.25181C20.0871 10.1535 17.1776 10.3183 14.5743 10.3814C15.2397 8.88682 16.5587 7.27888 17.713 5.48606C13.5005 4.6031 11.2832 7.35373 10.5312 10.4961C6.73156 10.64 3.32016 11.2271 3.32016 14.1964V15.5331C3.32016 21.7185 8.66004 26.4538 14.5753 25.8924L14.4174 25.9228C13.952 25.9743 13.4783 26 13 26C5.82053 26 0 20.1795 0 13C0 5.83808 5.79129 0.0292377 12.9462 0.0011731C12.9637 0 12.9825 0 13 0C20.1795 -2.26787e-08 26 5.82053 26 13Z" fill="url(#paint0_linear_347_328)"/>
<path d="M25.9991 13C25.9991 15.2536 25.4705 17.3973 24.418 19.2182C22.0346 23.3418 11.17 25.3732 13.8318 13.6584C17.9811 13.421 21.7153 12.531 21.7714 9.25181V8.88809C21.7714 4.09203 17.9694 0.108763 13.1745 0.00351238C13.0985 0.0011731 13.0225 -2.2701e-08 12.9453 0.0011731C12.9629 0 12.9816 0 12.9991 0C20.1786 -4.53574e-08 25.9991 5.82053 25.9991 13Z" fill="url(#paint1_linear_347_328)"/>
<defs>
<linearGradient id="paint0_linear_347_328" x1="5.1041" y1="-4.36284" x2="-7.8959" y2="11.429" gradientUnits="userSpaceOnUse">
<stop stop-color="#5C5E9B"/>
<stop offset="1" stop-color="#6DC3D2"/>
</linearGradient>
<linearGradient id="paint1_linear_347_328" x1="21.0893" y1="30.1572" x2="33.8421" y2="23.4568" gradientUnits="userSpaceOnUse">
<stop stop-color="#2C9BA2"/>
<stop offset="1" stop-color="#7CFAF7"/>
</linearGradient>
</defs>
</svg>
