<svg width="27" height="26" viewBox="0 0 27 26" fill="none" xmlns="http://www.w3.org/2000/svg">
<path d="M26.832 13C26.832 15.2536 26.3046 17.3973 25.2545 19.2182C22.8767 23.3418 12.0375 25.3732 14.693 13.6584C18.8327 13.421 22.5581 12.531 22.6141 9.25181C20.9328 10.1535 18.0301 10.3183 15.4329 10.3814C16.0968 8.88682 17.4127 7.27888 18.5643 5.48606C14.3617 4.6031 12.1495 7.35373 11.3992 10.4961C7.60845 10.64 4.205 11.2271 4.205 14.1964C4.44419 14.0911 4.74755 14.0093 5.10341 13.9473C6.39851 13.7204 8.39713 13.7438 10.5871 13.745C9.48226 20.2906 11.8193 25.841 17.3836 25.5147C16.9682 25.6316 16.5458 25.7287 16.1153 25.8047C16.1095 25.8059 16.1048 25.807 16.1001 25.807C15.8283 25.855 15.5529 25.8936 15.2764 25.9228C14.812 25.9743 14.3395 26 13.8623 26C6.69954 26 0.892578 20.1795 0.892578 13C0.892578 5.83808 6.67037 0.0292377 13.8086 0.0011731C13.8261 0 13.8448 0 13.8623 0C21.025 -2.26787e-08 26.832 5.82053 26.832 13Z" fill="black"/>
<path d="M26.832 13C26.832 15.2536 26.3046 17.3973 25.2545 19.2182C22.8767 23.3418 12.0375 25.3732 14.693 13.6584C18.8327 13.421 22.5581 12.531 22.6141 9.25181V8.88809C22.6141 4.09203 18.821 0.108763 14.0373 0.00351238C13.9614 0.0011731 13.8856 -2.2701e-08 13.8086 0.0011731C13.8261 0 13.8448 0 13.8623 0C21.025 -4.53574e-08 26.832 5.82053 26.832 13Z" fill="black"/>
</svg>
