<?xml version="1.0" standalone="no"?>
<!DOCTYPE svg PUBLIC "-//W3C//DTD SVG 20010904//EN"
 "http://www.w3.org/TR/2001/REC-SVG-20010904/DTD/svg10.dtd">
<svg version="1.0" xmlns="http://www.w3.org/2000/svg"
 width="1920.000000pt" height="1920.000000pt" viewBox="0 0 1920.000000 1920.000000"
 preserveAspectRatio="xMidYMid meet">

<g transform="translate(0.000000,1920.000000) scale(0.100000,-0.100000)"
fill="#000000" stroke="none">
<path d="M9083 18546 c-6 -10 -53 -14 -207 -18 -115 -3 -201 -9 -205 -15 -3
-6 -62 -13 -131 -17 -68 -4 -127 -11 -130 -16 -3 -5 -53 -12 -110 -16 -58 -4
-108 -11 -111 -16 -3 -5 -47 -12 -97 -15 -68 -4 -92 -10 -92 -19 0 -11 -19
-14 -80 -14 -62 0 -80 -3 -80 -14 0 -10 -20 -15 -76 -18 -41 -2 -78 -8 -82
-14 -4 -6 -41 -14 -82 -18 -41 -3 -77 -12 -81 -18 -4 -6 -31 -13 -60 -16 -30
-3 -57 -9 -60 -14 -3 -5 -34 -12 -68 -15 -42 -4 -61 -10 -61 -19 0 -10 -14
-14 -50 -14 -36 0 -50 -4 -50 -14 0 -10 -18 -15 -61 -18 -33 -2 -64 -9 -67
-15 -4 -5 -27 -13 -52 -17 -24 -4 -47 -12 -51 -17 -3 -6 -26 -13 -50 -16 -24
-4 -50 -12 -57 -20 -7 -7 -29 -13 -48 -13 -24 0 -34 -5 -34 -15 0 -11 -12 -15
-50 -15 -36 0 -50 -4 -50 -14 0 -8 -16 -15 -41 -19 -23 -3 -45 -10 -48 -15 -3
-5 -24 -12 -45 -15 -22 -4 -42 -11 -45 -16 -4 -5 -20 -13 -36 -17 -17 -4 -33
-11 -36 -16 -3 -5 -25 -12 -48 -15 -25 -4 -41 -11 -41 -19 0 -9 -12 -14 -35
-14 -24 0 -35 -5 -35 -15 0 -10 -10 -15 -34 -15 -19 0 -41 -6 -48 -13 -7 -8
-27 -17 -43 -21 -16 -4 -32 -12 -36 -17 -3 -5 -23 -12 -45 -16 -21 -3 -43 -12
-47 -20 -4 -7 -21 -13 -37 -13 -20 0 -30 -5 -30 -15 0 -10 -10 -15 -30 -15
-20 0 -30 -5 -30 -15 0 -9 -9 -15 -24 -15 -14 0 -31 -7 -39 -15 -8 -7 -26 -17
-41 -21 -14 -3 -26 -10 -26 -14 0 -5 -14 -12 -32 -15 -17 -4 -38 -14 -46 -21
-7 -8 -22 -14 -33 -14 -10 0 -19 -7 -19 -15 0 -10 -11 -15 -35 -15 -24 0 -35
-5 -35 -15 0 -9 -9 -15 -25 -15 -14 0 -28 -6 -31 -14 -3 -8 -19 -18 -35 -21
-16 -4 -29 -10 -29 -15 0 -5 -13 -11 -29 -15 -16 -3 -32 -13 -35 -21 -3 -8
-19 -14 -36 -14 -20 0 -30 -5 -30 -15 0 -10 -10 -15 -30 -15 -20 0 -30 -5 -30
-15 0 -8 -9 -15 -20 -15 -11 0 -20 -6 -20 -14 0 -8 -13 -17 -30 -21 -17 -4
-30 -10 -30 -15 0 -5 -13 -11 -29 -15 -16 -3 -32 -13 -35 -21 -3 -8 -17 -14
-31 -14 -16 0 -25 -6 -25 -15 0 -8 -9 -15 -20 -15 -11 0 -20 -7 -20 -15 0 -8
-9 -15 -19 -15 -11 0 -26 -6 -33 -13 -7 -7 -21 -16 -30 -20 -10 -3 -18 -11
-18 -16 0 -5 -14 -12 -30 -16 -16 -4 -30 -13 -30 -21 0 -9 -11 -14 -30 -14
-20 0 -30 -5 -30 -15 0 -8 -9 -15 -20 -15 -11 0 -20 -6 -20 -14 0 -8 -13 -17
-30 -21 -16 -4 -30 -13 -30 -21 0 -8 -7 -14 -15 -14 -8 0 -15 -4 -15 -9 0 -5
-13 -12 -29 -16 -16 -3 -32 -13 -35 -21 -3 -8 -12 -14 -21 -14 -8 0 -15 -7
-15 -15 0 -10 -10 -15 -30 -15 -18 0 -30 -5 -30 -13 0 -14 -27 -40 -53 -50 -9
-3 -17 -11 -17 -16 0 -5 -14 -12 -30 -16 -16 -4 -30 -13 -30 -21 0 -8 -7 -14
-15 -14 -8 0 -15 -7 -15 -15 0 -8 -9 -15 -20 -15 -11 0 -20 -7 -20 -15 0 -8
-7 -15 -15 -15 -8 0 -23 -9 -32 -20 -10 -11 -23 -20 -30 -20 -7 0 -13 -4 -13
-10 0 -5 -6 -10 -13 -10 -7 0 -20 -9 -30 -20 -9 -11 -24 -20 -32 -20 -8 0 -15
-7 -15 -15 0 -8 -9 -15 -20 -15 -11 0 -20 -7 -20 -15 0 -8 -7 -15 -15 -15 -8
0 -15 -7 -15 -15 0 -8 -6 -15 -13 -15 -7 0 -20 -9 -30 -20 -9 -11 -24 -20 -32
-20 -8 0 -15 -7 -15 -15 0 -8 -7 -15 -15 -15 -8 0 -15 -7 -15 -15 0 -8 -9 -15
-20 -15 -11 0 -20 -7 -20 -15 0 -8 -7 -15 -15 -15 -8 0 -15 -7 -15 -15 0 -8
-5 -15 -11 -15 -7 0 -27 -16 -46 -35 -19 -19 -43 -35 -53 -35 -11 0 -20 -7
-20 -15 0 -8 -7 -15 -15 -15 -8 0 -15 -7 -15 -15 0 -8 -7 -15 -15 -15 -8 0
-15 -7 -15 -15 0 -8 -6 -15 -12 -15 -16 0 -58 -44 -58 -59 0 -6 -7 -11 -15
-11 -8 0 -15 -7 -15 -15 0 -8 -9 -15 -20 -15 -11 0 -20 -4 -20 -10 0 -12 -68
-80 -80 -80 -6 0 -10 -7 -10 -15 0 -8 -7 -15 -15 -15 -8 0 -15 -9 -15 -20 0
-13 -7 -20 -20 -20 -11 0 -20 -7 -20 -15 0 -8 -7 -15 -15 -15 -8 0 -15 -7 -15
-15 0 -8 -7 -15 -15 -15 -8 0 -15 -7 -15 -15 0 -8 -7 -15 -15 -15 -8 0 -15 -7
-15 -15 0 -8 -7 -15 -15 -15 -8 0 -15 -9 -15 -20 0 -13 -7 -20 -20 -20 -11 0
-20 -4 -20 -10 0 -12 -98 -110 -110 -110 -6 0 -10 -9 -10 -20 0 -11 -7 -20
-15 -20 -8 0 -15 -7 -15 -15 0 -8 -6 -15 -12 -15 -16 0 -58 -44 -58 -59 0 -6
-7 -11 -15 -11 -8 0 -15 -7 -15 -15 0 -8 -7 -15 -15 -15 -8 0 -15 -7 -15 -15
0 -8 -7 -15 -15 -15 -8 0 -15 -9 -15 -19 0 -11 -22 -42 -50 -69 -27 -27 -50
-54 -50 -61 0 -6 -7 -11 -15 -11 -8 0 -15 -9 -15 -20 0 -11 -7 -20 -15 -20 -8
0 -15 -7 -15 -15 0 -8 -7 -15 -15 -15 -8 0 -15 -7 -15 -15 0 -8 -9 -23 -20
-32 -11 -10 -20 -23 -20 -30 0 -7 -7 -13 -15 -13 -8 0 -15 -7 -15 -15 0 -8 -7
-15 -15 -15 -8 0 -15 -9 -15 -20 0 -11 -7 -20 -15 -20 -8 0 -15 -7 -15 -15 0
-8 -9 -23 -20 -32 -11 -10 -20 -23 -20 -30 0 -7 -4 -13 -10 -13 -5 0 -10 -6
-10 -13 0 -7 -9 -20 -20 -30 -11 -9 -20 -24 -20 -32 0 -8 -7 -15 -15 -15 -8 0
-15 -9 -15 -20 0 -11 -7 -20 -15 -20 -8 0 -15 -7 -15 -15 0 -8 -6 -15 -14 -15
-8 0 -17 -13 -21 -29 -3 -16 -13 -32 -21 -35 -8 -3 -14 -12 -14 -21 0 -8 -7
-15 -15 -15 -8 0 -14 -3 -14 -7 5 -28 -3 -53 -16 -53 -8 0 -15 -7 -15 -15 0
-8 -7 -15 -15 -15 -8 0 -15 -9 -15 -20 0 -11 -6 -20 -14 -20 -8 0 -17 -13 -21
-30 -4 -16 -11 -30 -16 -30 -5 0 -9 -7 -9 -15 0 -8 -6 -15 -14 -15 -8 0 -17
-13 -21 -30 -4 -16 -13 -30 -21 -30 -8 0 -14 -9 -14 -20 0 -11 -7 -20 -15 -20
-10 0 -15 -10 -15 -30 0 -19 -5 -30 -14 -30 -8 0 -17 -13 -21 -29 -3 -16 -13
-32 -21 -35 -8 -3 -14 -10 -14 -16 0 -6 -7 -18 -15 -26 -8 -9 -15 -24 -15 -35
0 -10 -7 -19 -15 -19 -10 0 -15 -10 -15 -30 0 -20 -5 -30 -15 -30 -8 0 -15 -7
-15 -15 0 -9 -6 -18 -14 -21 -8 -3 -18 -19 -21 -35 -4 -16 -10 -29 -15 -29 -5
0 -11 -13 -15 -30 -4 -16 -13 -30 -21 -30 -8 0 -14 -9 -14 -20 0 -11 -7 -20
-15 -20 -10 0 -15 -10 -15 -30 0 -20 -5 -30 -15 -30 -10 0 -15 -10 -15 -30 0
-17 -6 -33 -14 -36 -8 -3 -18 -19 -21 -35 -4 -16 -10 -29 -15 -29 -5 0 -11
-13 -15 -29 -3 -16 -13 -32 -21 -35 -8 -3 -14 -17 -14 -31 0 -16 -6 -25 -15
-25 -10 0 -15 -11 -15 -35 0 -24 -5 -35 -15 -35 -8 0 -15 -9 -15 -19 0 -11 -6
-26 -14 -33 -7 -8 -17 -29 -21 -46 -3 -18 -10 -32 -15 -32 -5 0 -11 -13 -15
-30 -4 -16 -11 -30 -15 -30 -5 0 -12 -16 -16 -35 -3 -20 -12 -35 -20 -35 -9 0
-14 -11 -14 -30 0 -20 -5 -30 -15 -30 -10 0 -15 -10 -15 -34 0 -19 -6 -41 -14
-48 -7 -8 -17 -29 -21 -46 -3 -18 -10 -32 -15 -32 -5 0 -12 -14 -15 -32 -4
-17 -14 -38 -21 -46 -8 -7 -14 -29 -14 -48 0 -24 -5 -34 -15 -34 -10 0 -15
-11 -15 -35 0 -23 -5 -35 -14 -35 -8 0 -15 -16 -19 -41 -3 -23 -10 -45 -15
-48 -5 -3 -12 -19 -16 -36 -4 -16 -12 -32 -17 -36 -5 -3 -12 -23 -16 -45 -3
-21 -10 -42 -15 -45 -5 -3 -12 -25 -15 -48 -4 -25 -11 -41 -19 -41 -10 0 -14
-14 -14 -50 0 -36 -4 -50 -14 -50 -9 0 -15 -16 -19 -46 -2 -26 -9 -49 -14 -53
-6 -3 -13 -24 -16 -45 -4 -22 -11 -42 -16 -45 -6 -4 -13 -27 -17 -51 -4 -25
-11 -48 -16 -51 -5 -3 -12 -31 -15 -62 -4 -39 -10 -57 -19 -57 -10 0 -14 -15
-14 -55 0 -40 -4 -55 -14 -55 -9 0 -15 -19 -19 -61 -3 -34 -10 -65 -15 -68 -5
-3 -11 -30 -14 -60 -3 -29 -10 -56 -16 -60 -6 -3 -14 -40 -18 -81 -4 -41 -12
-78 -18 -82 -6 -4 -12 -41 -14 -82 -3 -56 -8 -76 -18 -76 -11 0 -14 -18 -14
-80 0 -61 -3 -80 -14 -80 -9 0 -15 -24 -19 -92 -3 -50 -10 -94 -15 -97 -5 -3
-12 -53 -16 -111 -4 -57 -11 -107 -16 -110 -5 -3 -12 -62 -16 -130 -4 -69 -12
-128 -17 -132 -6 -3 -12 -89 -15 -207 -4 -161 -7 -201 -18 -201 -12 0 -14 -88
-14 -520 0 -432 2 -520 14 -520 11 0 14 -40 18 -201 3 -118 9 -204 15 -207 5
-4 13 -63 17 -132 4 -68 11 -127 16 -130 5 -3 12 -53 16 -110 4 -58 11 -108
16 -111 5 -3 12 -47 15 -97 4 -68 10 -92 19 -92 11 0 14 -19 14 -80 0 -62 3
-80 14 -80 10 0 15 -20 18 -76 2 -41 8 -78 14 -82 6 -4 14 -41 18 -82 4 -41
12 -78 18 -81 6 -4 13 -31 16 -60 3 -30 9 -57 14 -60 5 -3 11 -29 15 -57 4
-33 11 -52 19 -52 9 0 14 -19 16 -62 2 -40 7 -62 14 -61 7 1 13 -22 17 -59 3
-33 10 -64 15 -67 5 -3 12 -24 15 -45 4 -22 11 -42 16 -45 6 -4 13 -27 17 -51
4 -25 11 -48 17 -51 5 -4 12 -27 14 -53 4 -30 10 -46 19 -46 10 0 14 -14 14
-45 0 -31 4 -45 14 -45 9 0 15 -16 19 -46 2 -26 9 -49 14 -53 6 -3 13 -24 16
-45 4 -22 11 -42 16 -45 5 -4 13 -20 17 -36 4 -17 11 -33 16 -36 5 -3 12 -25
15 -48 4 -25 11 -41 19 -41 9 0 14 -12 14 -35 0 -24 5 -35 15 -35 10 0 15 -10
15 -34 0 -19 6 -41 14 -48 7 -8 17 -29 21 -46 3 -18 10 -32 15 -32 5 0 12 -14
15 -32 4 -17 14 -38 21 -46 8 -7 14 -29 14 -48 0 -24 5 -34 15 -34 10 0 15
-10 15 -30 0 -19 5 -30 14 -30 8 0 17 -15 20 -35 4 -19 11 -35 16 -35 4 0 11
-14 15 -30 4 -17 10 -30 15 -30 5 0 12 -14 15 -32 4 -17 14 -38 21 -46 8 -7
14 -22 14 -33 0 -10 7 -19 15 -19 10 0 15 -11 15 -35 0 -24 5 -35 14 -35 8 0
17 -13 21 -30 4 -16 10 -30 15 -30 5 0 11 -14 15 -30 4 -17 10 -30 15 -30 5 0
11 -13 15 -29 3 -16 13 -32 21 -35 8 -3 14 -19 14 -36 0 -20 5 -30 15 -30 8 0
15 -9 15 -20 0 -11 7 -20 15 -20 9 0 15 -9 15 -25 0 -14 6 -28 14 -31 8 -3 18
-19 21 -35 4 -16 10 -29 15 -29 5 0 11 -13 15 -29 3 -16 13 -32 21 -35 8 -3
14 -12 14 -21 0 -8 7 -15 15 -15 10 0 15 -10 15 -30 0 -20 5 -30 15 -30 8 0
15 -9 15 -19 0 -11 7 -26 15 -35 8 -8 15 -20 15 -26 0 -6 6 -13 14 -16 8 -3
18 -19 21 -35 4 -16 13 -29 21 -29 8 0 14 -9 14 -20 0 -11 7 -20 15 -20 10 0
15 -10 15 -30 0 -19 5 -30 14 -30 8 0 17 -14 21 -30 4 -17 13 -30 21 -30 8 0
14 -7 14 -15 0 -8 5 -15 10 -15 6 0 10 -6 10 -13 0 -7 9 -20 20 -30 11 -9 20
-26 20 -37 0 -11 7 -20 15 -20 8 0 15 -7 15 -15 0 -8 7 -15 15 -15 8 0 15 -9
15 -19 0 -11 7 -26 15 -35 8 -8 15 -18 15 -23 0 -5 9 -16 20 -26 11 -9 20 -26
20 -37 0 -11 7 -20 15 -20 8 0 15 -7 15 -15 0 -8 7 -15 15 -15 8 0 15 -9 15
-20 0 -11 7 -20 15 -20 8 0 15 -7 15 -15 0 -8 9 -23 20 -32 11 -10 20 -23 20
-30 0 -7 7 -13 15 -13 8 0 15 -9 15 -20 0 -11 4 -20 10 -20 5 0 12 -11 16 -25
3 -14 12 -25 20 -25 8 0 14 -7 14 -15 0 -8 7 -15 15 -15 8 0 15 -9 15 -20 0
-11 7 -20 15 -20 8 0 15 -6 15 -13 0 -7 9 -20 20 -30 11 -9 20 -24 20 -32 0
-8 7 -15 15 -15 8 0 15 -7 15 -15 0 -8 7 -15 15 -15 8 0 15 -9 15 -20 0 -11 7
-20 15 -20 8 0 15 -7 15 -15 0 -8 7 -15 15 -15 8 0 15 -5 15 -11 0 -7 16 -27
35 -46 19 -19 35 -43 35 -53 0 -11 7 -20 15 -20 8 0 15 -7 15 -15 0 -8 5 -15
11 -15 15 0 89 -74 89 -89 0 -6 7 -11 15 -11 8 0 15 -7 15 -15 0 -8 7 -15 15
-15 8 0 15 -7 15 -15 0 -8 7 -15 15 -15 8 0 15 -5 15 -12 0 -6 20 -31 45 -55
25 -23 45 -47 45 -53 0 -5 9 -10 20 -10 13 0 20 -7 20 -20 0 -11 7 -20 15 -20
8 0 15 -7 15 -15 0 -8 7 -15 15 -15 8 0 15 -7 15 -15 0 -8 4 -15 10 -15 13 0
50 -37 50 -50 0 -6 9 -10 20 -10 13 0 20 -7 20 -20 0 -11 5 -20 10 -20 6 0 30
-20 53 -45 24 -25 49 -45 55 -45 7 0 12 -7 12 -15 0 -8 7 -15 15 -15 8 0 15
-7 15 -15 0 -8 7 -15 15 -15 8 0 15 -7 15 -15 0 -8 7 -15 15 -15 8 0 15 -7 15
-15 0 -8 6 -15 13 -15 15 0 57 -44 57 -59 0 -6 7 -11 15 -11 8 0 15 -7 15 -15
0 -8 9 -15 20 -15 10 0 34 -16 53 -35 19 -19 39 -35 46 -35 6 0 11 -7 11 -15
0 -8 7 -15 15 -15 8 0 15 -7 15 -15 0 -8 9 -15 20 -15 11 0 20 -7 20 -15 0 -8
7 -15 15 -15 8 0 15 -7 15 -15 0 -8 7 -15 15 -15 8 0 23 -9 32 -20 10 -11 23
-20 30 -20 7 0 13 -7 13 -15 0 -8 9 -15 20 -15 11 0 20 -7 20 -15 0 -8 7 -15
15 -15 8 0 15 -7 15 -15 0 -8 6 -15 13 -15 8 0 24 -9 37 -20 12 -11 27 -17 31
-14 5 3 9 -2 9 -10 0 -9 6 -16 13 -16 7 0 20 -9 30 -20 9 -11 24 -20 32 -20 8
0 15 -7 15 -15 0 -8 9 -15 20 -15 11 0 20 -6 20 -14 0 -8 12 -17 26 -20 15 -4
38 -20 53 -37 14 -16 29 -29 34 -29 5 0 15 -7 23 -15 9 -8 24 -15 35 -15 10 0
19 -7 19 -15 0 -8 7 -15 15 -15 8 0 15 -7 15 -15 0 -8 9 -15 20 -15 11 0 28
-9 37 -20 10 -11 23 -20 30 -20 7 0 13 -4 13 -9 0 -5 13 -12 30 -16 16 -4 30
-13 30 -21 0 -8 9 -14 20 -14 11 0 20 -7 20 -15 0 -8 7 -15 15 -15 8 0 15 -7
15 -15 0 -10 10 -15 30 -15 19 0 30 -5 30 -14 0 -8 13 -17 29 -21 16 -3 32
-13 35 -21 3 -8 12 -14 21 -14 8 0 15 -4 15 -9 0 -5 14 -12 30 -16 16 -4 30
-13 30 -21 0 -9 11 -14 30 -14 20 0 30 -5 30 -15 0 -8 9 -15 20 -15 11 0 20
-6 20 -14 0 -8 14 -17 30 -21 16 -4 30 -10 30 -15 0 -5 13 -11 29 -15 16 -3
32 -13 35 -21 3 -8 17 -14 31 -14 16 0 25 -6 25 -15 0 -8 9 -15 20 -15 11 0
20 -7 20 -15 0 -10 10 -15 30 -15 17 0 33 -6 36 -14 3 -8 19 -18 35 -21 16 -4
29 -10 29 -15 0 -5 14 -11 30 -15 17 -4 30 -10 30 -15 0 -5 14 -11 30 -15 17
-4 30 -13 30 -21 0 -9 11 -14 35 -14 24 0 35 -5 35 -15 0 -8 9 -15 19 -15 11
0 26 -6 33 -14 8 -7 29 -17 46 -21 18 -3 32 -10 32 -15 0 -5 14 -12 32 -15 17
-4 38 -14 46 -21 7 -8 22 -14 33 -14 10 0 19 -7 19 -15 0 -10 10 -15 30 -15
20 0 30 -5 30 -15 0 -10 10 -15 34 -15 19 0 41 -6 48 -14 8 -7 29 -17 46 -21
18 -3 32 -10 32 -15 0 -5 15 -12 33 -15 17 -4 35 -12 38 -17 3 -5 25 -12 48
-15 25 -4 41 -11 41 -19 0 -9 12 -14 35 -14 23 0 35 -5 35 -14 0 -8 16 -15 41
-19 23 -3 45 -10 48 -16 4 -5 26 -13 49 -17 23 -4 42 -10 42 -14 0 -5 15 -12
33 -15 17 -4 35 -12 38 -17 4 -6 27 -13 53 -15 30 -4 46 -10 46 -19 0 -10 14
-14 45 -14 31 0 45 -4 45 -14 0 -9 16 -15 46 -19 26 -2 49 -9 53 -14 3 -6 24
-13 45 -16 22 -4 42 -11 46 -17 4 -6 33 -14 66 -17 32 -3 62 -10 65 -16 4 -5
27 -12 53 -14 30 -4 46 -10 46 -19 0 -10 17 -14 65 -14 50 0 63 -3 59 -14 -4
-9 9 -15 47 -19 29 -4 55 -10 58 -15 3 -5 30 -11 60 -14 29 -3 56 -10 60 -16
3 -6 40 -14 81 -18 41 -4 78 -11 81 -15 3 -5 40 -12 82 -15 55 -5 77 -11 77
-20 0 -11 19 -14 80 -14 61 0 80 -3 80 -14 0 -9 24 -15 92 -19 50 -3 94 -10
97 -15 3 -5 53 -12 111 -16 57 -4 107 -11 110 -16 3 -5 62 -12 130 -16 69 -4
128 -11 131 -17 4 -6 90 -12 205 -15 154 -4 201 -8 207 -18 12 -21 1027 -21
1027 0 0 11 41 14 206 18 122 3 209 9 212 15 4 5 63 13 132 17 68 4 127 11
130 16 3 5 53 12 110 16 58 4 108 11 111 16 3 5 47 12 97 15 68 4 92 10 92 19
0 11 19 14 80 14 61 0 80 3 80 14 0 9 22 15 77 20 42 3 79 10 82 15 3 4 33 11
65 14 33 3 62 10 65 16 4 5 38 13 76 17 39 4 73 11 76 16 3 5 29 11 58 15 38
4 51 10 47 19 -4 11 9 14 59 14 48 0 65 4 65 14 0 9 16 15 46 19 26 2 49 9 53
15 3 5 30 11 60 14 29 3 56 10 60 16 4 6 27 14 51 18 25 4 48 11 51 17 4 5 27
12 53 14 30 4 46 10 46 19 0 10 14 14 45 14 31 0 45 4 45 14 0 9 16 15 46 19
26 2 49 9 53 14 3 6 19 13 36 17 16 4 32 12 36 17 3 5 23 12 45 16 21 3 42 10
45 15 3 5 25 12 48 15 25 4 41 11 41 19 0 9 12 14 35 14 23 0 35 5 35 14 0 8
16 15 41 19 23 3 45 10 48 15 3 5 21 13 39 17 17 3 32 10 32 15 0 5 14 12 32
15 17 4 38 14 46 21 7 8 29 14 48 14 24 0 34 5 34 15 0 10 10 15 30 15 20 0
30 5 30 15 0 8 9 15 19 15 11 0 26 6 33 14 8 7 29 17 46 21 18 3 32 10 32 15
0 5 14 12 32 15 17 4 38 14 46 21 7 8 22 14 33 14 10 0 19 7 19 15 0 10 11 15
35 15 24 0 35 5 35 14 0 8 14 17 30 21 17 4 30 10 30 15 0 5 14 11 30 15 17 4
30 10 30 15 0 5 13 11 29 15 16 3 32 13 35 21 3 8 19 14 36 14 20 0 30 5 30
15 0 8 9 15 20 15 11 0 20 7 20 15 0 9 9 15 25 15 14 0 28 6 31 14 3 8 19 18
35 21 16 4 29 10 29 15 0 5 14 11 30 15 17 4 30 13 30 21 0 8 9 14 20 14 11 0
20 7 20 15 0 10 10 15 30 15 19 0 30 5 30 14 0 8 14 17 30 21 17 4 30 11 30
16 0 5 6 9 13 9 7 0 20 9 30 20 9 11 26 20 37 20 11 0 20 7 20 15 0 8 9 15 20
15 11 0 20 7 20 15 0 9 9 15 25 15 16 0 25 6 25 15 0 8 9 15 20 15 11 0 20 6
20 14 0 8 14 17 30 21 17 4 30 11 30 16 0 5 6 9 13 9 7 0 20 9 30 20 9 11 26
20 37 20 11 0 20 7 20 15 0 8 7 15 15 15 8 0 15 7 15 15 0 8 9 15 20 15 11 0
28 9 37 20 10 11 22 20 27 20 5 0 19 11 32 25 12 13 34 27 48 31 14 3 26 12
26 20 0 8 9 14 20 14 11 0 20 7 20 15 0 8 7 15 15 15 8 0 23 9 32 20 10 11 23
20 30 20 7 0 13 7 13 15 0 8 9 15 20 15 11 0 20 4 20 10 0 5 11 12 25 16 14 3
25 12 25 20 0 8 7 14 15 14 8 0 15 7 15 15 0 8 9 15 20 15 11 0 20 7 20 15 0
8 5 15 11 15 7 0 27 16 46 35 19 19 40 35 48 35 8 0 15 7 15 15 0 8 9 15 20
15 11 0 20 7 20 15 0 8 7 15 15 15 8 0 15 7 15 15 0 8 5 15 11 15 15 0 89 74
89 89 0 6 14 11 30 11 17 0 30 5 30 11 0 15 74 89 89 89 6 0 11 7 11 15 0 8 7
15 15 15 8 0 15 7 15 15 0 8 7 15 15 15 8 0 15 7 15 15 0 8 5 15 12 15 6 0 31
20 55 45 23 25 47 45 53 45 5 0 10 9 10 20 0 13 7 20 20 20 11 0 20 5 20 10 0
13 37 50 50 50 6 0 10 7 10 15 0 8 7 15 15 15 8 0 15 7 15 15 0 8 7 15 15 15
8 0 15 9 15 20 0 13 7 20 20 20 11 0 20 5 20 10 0 6 20 30 45 53 25 24 45 49
45 55 0 7 7 12 15 12 8 0 15 7 15 15 0 8 7 15 15 15 8 0 15 7 15 15 0 8 7 15
15 15 8 0 15 5 15 11 0 15 74 89 89 89 6 0 11 7 11 15 0 8 7 15 15 15 8 0 15
9 15 20 0 10 16 34 35 53 19 19 35 39 35 46 0 6 7 11 15 11 8 0 15 7 15 15 0
8 7 15 15 15 8 0 15 9 15 20 0 11 7 20 15 20 8 0 15 7 15 15 0 8 16 29 35 48
19 19 35 39 35 46 0 6 7 11 15 11 8 0 15 9 15 20 0 11 7 20 15 20 8 0 15 7 15
15 0 8 6 15 14 15 8 0 17 11 20 25 4 14 11 25 16 25 6 0 10 9 10 20 0 11 7 20
15 20 8 0 15 6 15 13 0 7 9 20 20 30 11 9 20 24 20 32 0 8 7 15 15 15 8 0 15
9 15 20 0 11 7 20 15 20 8 0 15 7 15 15 0 8 7 15 15 15 8 0 15 9 15 20 0 11 9
28 20 37 11 10 20 21 20 26 0 5 7 15 15 23 8 9 15 24 15 35 0 10 7 19 15 19 8
0 15 7 15 15 0 8 7 15 15 15 8 0 15 9 15 20 0 11 9 28 20 37 11 10 20 23 20
30 0 7 4 13 9 13 5 0 12 14 16 30 4 17 13 30 21 30 8 0 14 9 14 20 0 11 7 20
15 20 9 0 15 9 15 25 0 16 6 25 15 25 8 0 15 9 15 20 0 11 6 20 14 20 8 0 17
13 21 29 3 16 13 32 21 35 8 3 14 10 14 16 0 6 7 18 15 26 8 9 15 24 15 35 0
10 7 19 15 19 10 0 15 10 15 30 0 20 5 30 15 30 8 0 15 9 15 20 0 11 6 20 14
20 8 0 17 14 21 30 4 17 10 30 15 30 5 0 11 13 15 29 3 16 13 32 21 35 8 3 14
17 14 31 0 16 6 25 15 25 8 0 15 9 15 20 0 11 7 20 15 20 10 0 15 10 15 30 0
17 6 33 14 36 8 3 18 19 21 35 4 16 10 29 15 29 5 0 11 14 15 30 4 17 10 30
15 30 5 0 11 13 15 30 4 17 13 30 21 30 9 0 14 11 14 35 0 24 5 35 15 35 8 0
15 9 15 19 0 11 6 26 14 33 7 8 17 29 21 46 3 18 10 32 15 32 5 0 11 13 15 30
4 16 11 30 15 30 5 0 12 16 16 35 3 20 12 35 20 35 9 0 14 11 14 30 0 20 5 30
15 30 10 0 15 10 15 34 0 19 6 41 14 48 7 8 17 29 21 46 3 18 10 32 15 32 5 0
12 14 15 32 4 17 14 38 21 46 8 7 14 29 14 48 0 24 5 34 15 34 10 0 15 11 15
35 0 23 5 35 14 35 8 0 15 16 19 41 3 23 10 45 16 48 5 4 13 26 17 49 4 23 10
42 14 42 5 0 12 15 15 32 4 18 12 36 17 39 6 4 13 27 15 53 4 30 10 46 19 46
10 0 14 14 14 45 0 31 4 45 14 45 9 0 15 16 19 46 2 26 9 49 15 53 5 3 12 27
16 54 4 26 11 47 16 47 5 0 12 26 16 58 4 31 11 60 16 63 6 4 13 27 15 53 4
30 10 46 19 46 10 0 14 16 14 60 0 44 4 60 14 60 9 0 15 18 19 52 4 28 10 54
15 57 5 3 12 37 16 76 4 38 12 72 17 76 6 3 13 32 16 65 3 32 11 62 17 66 6 4
12 41 14 82 3 56 8 76 18 76 11 0 14 18 14 80 0 61 3 80 14 80 9 0 15 24 19
92 3 50 10 94 15 97 5 3 12 53 16 111 4 57 11 107 16 110 5 3 12 62 16 130 4
69 12 128 17 132 6 3 12 90 15 212 4 165 7 206 18 206 12 0 14 87 14 515 0
428 -2 515 -14 515 -11 0 -14 40 -18 201 -3 118 -9 204 -15 207 -5 4 -13 63
-17 132 -4 68 -11 127 -16 130 -5 3 -12 53 -16 110 -4 58 -11 108 -16 111 -5
3 -12 47 -15 97 -4 68 -10 92 -19 92 -11 0 -14 19 -14 80 0 62 -3 80 -14 80
-10 0 -15 20 -18 76 -2 41 -8 78 -14 82 -6 4 -14 34 -17 66 -3 33 -10 62 -16
65 -5 4 -13 38 -17 76 -4 39 -11 73 -16 76 -5 3 -11 29 -15 57 -4 34 -10 52
-19 52 -10 0 -14 16 -14 60 0 44 -4 60 -14 60 -9 0 -15 19 -19 61 -3 34 -10
65 -15 68 -5 3 -12 24 -15 45 -4 22 -11 42 -16 45 -6 4 -13 27 -17 51 -4 25
-11 48 -17 51 -5 4 -12 27 -14 53 -4 30 -10 46 -19 46 -10 0 -14 14 -14 45 0
31 -4 45 -14 45 -9 0 -15 16 -19 46 -2 26 -9 49 -14 53 -6 3 -13 24 -16 45 -4
22 -11 42 -16 45 -5 4 -13 20 -17 36 -4 17 -11 33 -16 36 -5 3 -12 25 -15 48
-4 25 -11 41 -19 41 -9 0 -14 12 -14 35 0 24 -5 35 -15 35 -10 0 -15 10 -15
34 0 19 -6 41 -14 48 -7 8 -17 29 -21 46 -3 18 -10 32 -15 32 -5 0 -12 14 -15
32 -4 17 -14 38 -21 46 -8 7 -14 29 -14 48 0 24 -5 34 -15 34 -10 0 -15 10
-15 30 0 19 -5 30 -14 30 -8 0 -17 15 -20 35 -4 19 -11 35 -16 35 -4 0 -11 14
-15 30 -4 17 -10 30 -15 30 -5 0 -12 14 -15 32 -4 17 -14 38 -21 46 -8 7 -14
22 -14 33 0 10 -7 19 -15 19 -10 0 -15 11 -15 35 0 24 -5 35 -15 35 -9 0 -15
9 -15 25 0 14 -6 28 -14 31 -8 3 -18 19 -21 35 -4 16 -10 29 -15 29 -5 0 -11
13 -15 29 -3 16 -13 32 -21 35 -8 3 -14 19 -14 36 0 20 -5 30 -15 30 -10 0
-15 10 -15 30 0 20 -5 30 -15 30 -8 0 -15 7 -15 15 0 9 -6 18 -14 21 -8 3 -18
19 -21 35 -4 16 -10 29 -15 29 -5 0 -11 13 -15 29 -3 16 -13 32 -21 35 -8 3
-14 12 -14 21 0 8 -7 15 -15 15 -10 0 -15 10 -15 30 0 20 -5 30 -15 30 -8 0
-15 9 -15 19 0 11 -6 26 -13 33 -7 7 -16 21 -20 31 -3 9 -11 17 -16 17 -5 0
-12 14 -16 30 -4 17 -13 30 -21 30 -8 0 -14 9 -14 20 0 11 -7 20 -15 20 -10 0
-15 10 -15 30 0 19 -5 30 -14 30 -8 0 -17 14 -21 30 -4 17 -13 30 -21 30 -8 0
-14 7 -14 15 0 8 -4 15 -9 15 -5 0 -12 14 -16 30 -4 17 -13 30 -21 30 -8 0
-14 9 -14 20 0 11 -7 20 -15 20 -8 0 -15 7 -15 15 0 8 -7 15 -15 15 -8 0 -15
9 -15 19 0 11 -6 26 -13 33 -7 7 -16 21 -20 31 -3 9 -11 17 -16 17 -5 0 -12
14 -16 30 -4 17 -13 30 -21 30 -8 0 -14 7 -14 15 0 8 -7 15 -15 15 -8 0 -15 9
-15 20 0 11 -7 20 -15 20 -8 0 -15 7 -15 15 0 8 -9 23 -20 32 -11 10 -20 23
-20 30 0 7 -4 13 -10 13 -5 0 -10 6 -10 13 0 7 -9 20 -20 30 -11 9 -20 24 -20
32 0 8 -7 15 -15 15 -8 0 -15 9 -15 20 0 11 -7 20 -15 20 -8 0 -15 7 -15 15 0
8 -7 15 -15 15 -8 0 -15 6 -15 13 0 7 -9 20 -20 30 -11 9 -20 24 -20 32 0 8
-7 15 -15 15 -8 0 -15 7 -15 15 0 8 -7 15 -15 15 -8 0 -15 9 -15 20 0 11 -6
20 -14 20 -7 0 -16 9 -19 21 -3 12 -10 18 -16 14 -6 -3 -11 -1 -11 6 0 7 -16
27 -35 46 -19 19 -35 43 -35 53 0 11 -7 20 -15 20 -8 0 -15 7 -15 15 0 8 -7
15 -15 15 -8 0 -15 7 -15 15 0 8 -7 15 -15 15 -8 0 -15 5 -15 11 0 15 -42 59
-57 59 -7 0 -13 7 -13 15 0 8 -7 15 -15 15 -8 0 -15 9 -15 20 0 11 -4 20 -10
20 -12 0 -110 98 -110 110 0 6 -9 10 -20 10 -13 0 -20 7 -20 20 0 11 -7 20
-15 20 -8 0 -15 7 -15 15 0 8 -7 15 -15 15 -8 0 -15 7 -15 15 0 8 -7 15 -15
15 -8 0 -15 7 -15 15 0 8 -7 15 -15 15 -8 0 -15 7 -15 15 0 8 -9 15 -20 15
-13 0 -20 7 -20 20 0 11 -4 20 -10 20 -12 0 -110 98 -110 110 0 6 -9 10 -20
10 -11 0 -20 7 -20 15 0 8 -7 15 -15 15 -8 0 -15 5 -15 11 0 15 -42 59 -57 59
-7 0 -13 7 -13 15 0 8 -7 15 -15 15 -8 0 -15 7 -15 15 0 8 -7 15 -15 15 -8 0
-15 7 -15 15 0 8 -9 15 -20 15 -10 0 -34 16 -53 35 -19 19 -39 35 -46 35 -6 0
-11 7 -11 15 0 8 -7 15 -15 15 -8 0 -15 7 -15 15 0 8 -9 15 -20 15 -11 0 -20
7 -20 15 0 8 -7 15 -15 15 -8 0 -29 16 -48 35 -19 19 -39 35 -46 35 -6 0 -11
7 -11 15 0 8 -7 15 -15 15 -8 0 -15 7 -15 15 0 8 -9 15 -20 15 -11 0 -20 7
-20 15 0 8 -7 15 -15 15 -8 0 -23 9 -32 20 -10 11 -23 20 -30 20 -7 0 -13 5
-13 10 0 6 -6 10 -13 10 -7 0 -20 9 -30 20 -9 11 -24 20 -32 20 -8 0 -15 7
-15 15 0 8 -9 15 -20 15 -11 0 -20 7 -20 15 0 8 -7 15 -15 15 -8 0 -15 6 -15
14 0 8 -13 17 -30 21 -16 4 -30 11 -30 16 0 5 -8 13 -17 16 -26 10 -53 36 -53
50 0 8 -12 13 -30 13 -20 0 -30 5 -30 15 0 8 -9 15 -20 15 -11 0 -20 6 -20 14
0 8 -13 17 -30 21 -16 4 -30 11 -30 16 0 5 -7 9 -15 9 -8 0 -15 6 -15 14 0 8
-13 17 -30 21 -16 4 -30 13 -30 21 0 9 -11 14 -30 14 -20 0 -30 5 -30 15 0 8
-9 15 -20 15 -11 0 -20 6 -20 14 0 8 -13 17 -30 21 -16 4 -30 11 -30 16 0 5
-8 13 -17 16 -10 4 -24 13 -31 20 -7 7 -22 13 -33 13 -10 0 -19 7 -19 15 0 8
-9 15 -20 15 -11 0 -20 7 -20 15 0 9 -9 15 -25 15 -14 0 -28 6 -31 14 -3 8
-19 18 -35 21 -16 4 -29 10 -29 15 0 5 -13 11 -30 15 -16 4 -30 13 -30 21 0 8
-9 14 -20 14 -11 0 -20 7 -20 15 0 10 -10 15 -30 15 -20 0 -30 5 -30 15 0 10
-10 15 -30 15 -17 0 -33 6 -36 14 -3 8 -19 18 -35 21 -16 4 -29 10 -29 15 0 5
-13 11 -29 15 -16 3 -32 13 -35 21 -3 8 -17 14 -31 14 -16 0 -25 6 -25 15 0
10 -11 15 -35 15 -24 0 -35 5 -35 15 0 8 -9 15 -19 15 -11 0 -26 6 -33 14 -8
7 -29 17 -46 21 -18 3 -32 10 -32 15 0 5 -13 11 -30 15 -16 4 -30 11 -30 15 0
5 -16 12 -35 16 -20 3 -35 12 -35 20 0 9 -11 14 -30 14 -20 0 -30 5 -30 15 0
10 -10 15 -30 15 -16 0 -33 6 -37 13 -4 8 -26 17 -47 20 -22 4 -42 11 -45 16
-4 5 -20 13 -36 17 -16 4 -36 13 -43 21 -7 7 -29 13 -48 13 -24 0 -34 5 -34
15 0 10 -11 15 -35 15 -23 0 -35 5 -35 14 0 8 -16 15 -41 19 -23 3 -45 10 -48
15 -3 5 -19 12 -36 16 -16 4 -32 12 -36 17 -3 5 -23 12 -45 16 -21 3 -42 10
-45 15 -3 5 -25 12 -48 15 -25 4 -41 11 -41 19 0 10 -14 14 -50 14 -38 0 -50
4 -50 15 0 10 -10 15 -34 15 -19 0 -41 6 -48 13 -7 8 -35 17 -63 20 -27 4 -52
12 -55 17 -4 6 -24 13 -46 17 -21 3 -42 11 -46 16 -3 6 -34 13 -67 15 -43 3
-61 8 -61 18 0 10 -14 14 -50 14 -36 0 -50 4 -50 14 0 9 -19 15 -61 19 -34 3
-65 10 -68 15 -3 5 -37 12 -76 16 -38 4 -72 12 -76 17 -3 6 -32 13 -65 16 -32
3 -62 11 -66 17 -4 6 -41 12 -82 14 -56 3 -76 8 -76 18 0 11 -18 14 -80 14
-61 0 -80 3 -80 14 0 9 -24 15 -92 19 -50 3 -94 10 -97 15 -3 5 -53 12 -111
16 -57 4 -107 11 -110 16 -3 5 -62 12 -130 16 -69 4 -128 12 -132 17 -3 6 -90
12 -212 15 -165 4 -206 7 -206 18 0 21 -1015 21 -1027 0z m677 -3521 c0 -13
24 -15 160 -15 136 0 160 -2 160 -15 0 -12 16 -15 80 -15 61 0 80 -3 80 -14 0
-18 31 -26 103 -26 44 0 57 -3 57 -15 0 -11 12 -15 50 -15 38 0 50 -4 50 -15
0 -12 13 -15 60 -15 44 0 60 -4 60 -14 0 -9 16 -15 47 -19 26 -3 49 -10 51
-16 2 -6 16 -11 32 -11 19 0 29 -6 33 -20 4 -16 14 -20 51 -20 34 0 46 -4 46
-15 0 -10 10 -15 30 -15 20 0 30 -5 30 -15 0 -10 11 -15 35 -15 24 0 35 -5 35
-15 0 -10 10 -15 30 -15 20 0 30 -5 30 -15 0 -10 10 -15 31 -15 22 0 32 -5 36
-20 3 -11 12 -20 19 -20 8 0 14 -4 14 -9 0 -5 14 -12 30 -16 17 -4 30 -13 30
-21 0 -9 11 -14 35 -14 19 0 35 -4 35 -10 0 -19 40 -50 65 -50 14 0 25 -5 25
-11 0 -22 45 -59 73 -59 17 0 27 -5 27 -15 0 -8 7 -15 15 -15 8 0 15 -7 15
-15 0 -8 7 -15 15 -15 8 0 15 -7 15 -15 0 -10 10 -15 31 -15 22 0 32 -5 36
-20 3 -11 12 -20 19 -20 8 0 14 -7 14 -15 0 -8 7 -15 15 -15 8 0 15 -7 15 -15
0 -8 7 -15 15 -15 8 0 15 -7 15 -15 0 -8 7 -15 15 -15 8 0 15 -7 15 -15 0 -8
7 -15 16 -15 9 0 18 -9 21 -20 3 -11 12 -20 19 -20 8 0 14 -7 14 -15 0 -8 7
-15 15 -15 8 0 15 -7 15 -15 0 -8 7 -15 15 -15 8 0 15 -7 15 -15 0 -8 7 -15
15 -15 8 0 15 -7 15 -15 0 -8 7 -15 16 -15 9 0 18 -9 21 -20 3 -11 12 -20 19
-20 8 0 14 -7 14 -15 0 -8 7 -15 15 -15 8 0 15 -7 15 -15 0 -8 7 -15 15 -15 8
0 15 -7 15 -15 0 -8 7 -15 15 -15 8 0 15 -6 15 -14 0 -7 9 -16 20 -19 15 -4
20 -14 20 -36 0 -21 5 -31 15 -31 8 0 15 -7 15 -15 0 -8 7 -15 15 -15 8 0 15
-7 15 -15 0 -8 7 -15 15 -15 10 0 15 -10 15 -27 0 -28 37 -73 59 -73 6 0 11
-11 11 -25 0 -25 31 -65 50 -65 6 0 10 -16 10 -35 0 -24 5 -35 15 -35 10 0 15
-10 15 -30 0 -20 5 -30 15 -30 8 0 15 -6 15 -14 0 -7 9 -16 20 -19 15 -4 20
-14 20 -36 0 -21 5 -31 15 -31 10 0 15 -10 15 -30 0 -20 5 -30 15 -30 10 0 15
-11 15 -35 0 -24 5 -35 15 -35 11 0 15 -12 15 -45 0 -33 4 -45 15 -45 10 0 15
-10 15 -31 0 -22 5 -32 20 -36 16 -4 20 -14 20 -48 0 -29 5 -45 15 -49 9 -3
15 -18 15 -36 0 -20 5 -30 15 -30 12 0 15 -13 15 -60 0 -47 3 -60 15 -60 11 0
15 -12 15 -50 0 -38 4 -50 15 -50 12 0 15 -13 15 -57 0 -72 8 -103 26 -103 11
0 14 -19 14 -80 0 -64 3 -80 15 -80 13 0 15 -26 15 -175 0 -149 2 -175 15
-175 13 0 15 -21 15 -130 0 -109 -2 -130 -15 -130 -13 0 -15 -26 -15 -175 0
-149 -2 -175 -15 -175 -12 0 -15 -16 -15 -80 0 -61 -3 -80 -14 -80 -18 0 -26
-31 -26 -102 0 -45 -3 -58 -15 -58 -11 0 -15 -12 -15 -50 0 -38 -4 -50 -15
-50 -11 0 -15 -12 -15 -45 0 -33 -4 -45 -15 -45 -11 0 -15 -12 -15 -45 0 -31
-5 -47 -15 -51 -10 -4 -15 -20 -15 -49 0 -34 -4 -44 -20 -48 -15 -4 -20 -14
-20 -36 0 -21 -5 -31 -15 -31 -11 0 -15 -12 -15 -45 0 -33 -4 -45 -15 -45 -10
0 -15 -11 -15 -35 0 -24 -5 -35 -15 -35 -10 0 -15 -10 -15 -30 0 -20 -5 -30
-15 -30 -10 0 -15 -10 -15 -31 0 -22 -5 -32 -20 -36 -11 -3 -20 -12 -20 -19 0
-8 -7 -14 -15 -14 -10 0 -15 -10 -15 -30 0 -20 -5 -30 -15 -30 -10 0 -15 -11
-15 -35 0 -19 -4 -35 -10 -35 -19 0 -50 -40 -50 -65 0 -14 -5 -25 -11 -25 -22
0 -59 -45 -59 -72 0 -18 -5 -28 -15 -28 -8 0 -15 -7 -15 -15 0 -8 -7 -15 -15
-15 -8 0 -15 -7 -15 -15 0 -8 -6 -15 -14 -15 -8 0 -17 -13 -21 -29 -3 -16 -13
-32 -21 -35 -8 -3 -14 -12 -14 -21 0 -8 -7 -15 -15 -15 -8 0 -15 -7 -15 -15 0
-8 -7 -15 -15 -15 -8 0 -15 -7 -15 -15 0 -8 -7 -15 -15 -15 -8 0 -15 -7 -15
-15 0 -8 -6 -15 -14 -15 -7 0 -16 -9 -19 -20 -3 -11 -12 -20 -21 -20 -9 0 -16
-7 -16 -15 0 -8 -7 -15 -15 -15 -8 0 -15 -7 -15 -15 0 -8 -7 -15 -15 -15 -8 0
-15 -7 -15 -15 0 -8 -7 -15 -15 -15 -8 0 -15 -7 -15 -15 0 -8 -6 -15 -14 -15
-7 0 -16 -9 -19 -20 -3 -11 -12 -20 -21 -20 -9 0 -16 -7 -16 -15 0 -8 -7 -15
-15 -15 -8 0 -15 -7 -15 -15 0 -8 -7 -15 -15 -15 -8 0 -15 -7 -15 -15 0 -8 -7
-15 -15 -15 -8 0 -15 -7 -15 -15 0 -8 -6 -15 -14 -15 -7 0 -16 -9 -19 -20 -4
-15 -14 -20 -36 -20 -21 0 -31 -5 -31 -15 0 -8 -7 -15 -15 -15 -8 0 -15 -7
-15 -15 0 -8 -7 -15 -15 -15 -8 0 -15 -7 -15 -15 0 -10 -10 -15 -26 -15 -27 0
-74 -36 -74 -57 0 -7 -11 -13 -25 -13 -25 0 -65 -31 -65 -50 0 -5 -16 -10 -35
-10 -24 0 -35 -5 -35 -15 0 -10 -10 -15 -30 -15 -20 0 -30 -5 -30 -15 0 -8 -6
-15 -14 -15 -7 0 -16 -9 -19 -20 -4 -15 -14 -20 -36 -20 -17 0 -31 -4 -31 -9
0 -5 -13 -12 -30 -16 -16 -4 -30 -13 -30 -21 0 -9 -11 -14 -35 -14 -24 0 -35
-5 -35 -15 0 -11 -12 -15 -45 -15 -33 0 -45 -4 -45 -15 0 -10 -10 -15 -31 -15
-22 0 -32 -5 -36 -20 -4 -16 -14 -20 -48 -20 -29 0 -45 -5 -49 -15 -4 -10 -20
-15 -51 -15 -33 0 -45 -4 -45 -15 0 -11 -12 -15 -45 -15 -33 0 -45 -4 -45 -15
0 -11 -12 -15 -50 -15 -38 0 -50 -4 -50 -15 0 -12 -13 -15 -57 -15 -72 0 -103
-8 -103 -26 0 -11 -19 -14 -80 -14 -64 0 -80 -3 -80 -15 0 -13 -24 -15 -160
-15 -136 0 -160 -2 -160 -15 0 -13 -24 -15 -160 -15 -136 0 -160 2 -160 15 0
13 -24 15 -160 15 -136 0 -160 2 -160 15 0 12 -16 15 -80 15 -61 0 -80 3 -80
14 0 16 -43 26 -111 26 -37 0 -49 4 -49 15 0 11 -12 15 -50 15 -38 0 -50 4
-50 15 0 11 -12 15 -45 15 -33 0 -45 4 -45 15 0 11 -12 15 -45 15 -31 0 -47 5
-51 15 -4 10 -20 15 -49 15 -34 0 -44 4 -48 20 -4 15 -14 20 -36 20 -21 0 -31
5 -31 15 0 11 -12 15 -45 15 -33 0 -45 4 -45 15 0 10 -11 15 -35 15 -24 0 -35
5 -35 15 0 10 -10 15 -30 15 -20 0 -30 5 -30 15 0 10 -10 15 -31 15 -22 0 -32
5 -36 20 -3 11 -12 20 -19 20 -8 0 -14 7 -14 15 0 10 -10 15 -30 15 -20 0 -30
5 -30 15 0 10 -11 15 -35 15 -19 0 -35 5 -35 10 0 19 -40 50 -65 50 -14 0 -25
6 -25 13 0 21 -47 57 -74 57 -16 0 -26 5 -26 15 0 8 -7 15 -15 15 -8 0 -15 7
-15 15 0 8 -7 15 -15 15 -8 0 -15 7 -15 15 0 10 -10 15 -31 15 -22 0 -32 5
-36 20 -3 11 -12 20 -19 20 -8 0 -14 7 -14 15 0 8 -7 15 -15 15 -8 0 -15 7
-15 15 0 8 -7 15 -15 15 -8 0 -15 7 -15 15 0 8 -7 15 -15 15 -8 0 -15 7 -15
15 0 8 -7 15 -16 15 -9 0 -18 9 -21 20 -3 11 -12 20 -19 20 -8 0 -14 7 -14 15
0 8 -7 15 -15 15 -8 0 -15 7 -15 15 0 8 -7 15 -15 15 -8 0 -15 7 -15 15 0 8
-7 15 -15 15 -8 0 -15 7 -15 15 0 8 -7 15 -16 15 -9 0 -18 9 -21 20 -3 11 -12
20 -19 20 -8 0 -14 7 -14 15 0 8 -7 15 -15 15 -8 0 -15 7 -15 15 0 8 -7 15
-15 15 -8 0 -15 7 -15 15 0 8 -7 15 -15 15 -8 0 -15 6 -15 14 0 7 -9 16 -20
19 -15 4 -20 14 -20 36 0 21 -5 31 -15 31 -8 0 -15 7 -15 15 0 8 -7 15 -15 15
-8 0 -15 7 -15 15 0 8 -7 15 -15 15 -10 0 -15 10 -15 26 0 27 -36 74 -57 74
-7 0 -13 11 -13 25 0 25 -31 65 -50 65 -6 0 -10 16 -10 35 0 24 -5 35 -15 35
-10 0 -15 10 -15 30 0 20 -5 30 -15 30 -8 0 -15 6 -15 14 0 7 -9 16 -20 19
-15 4 -20 14 -20 36 0 21 -5 31 -15 31 -10 0 -15 10 -15 30 0 20 -5 30 -15 30
-10 0 -15 11 -15 35 0 24 -5 35 -15 35 -11 0 -15 12 -15 45 0 33 -4 45 -15 45
-10 0 -15 10 -15 31 0 22 -5 32 -20 36 -16 4 -20 14 -20 48 0 29 -5 45 -15 49
-10 4 -15 20 -15 51 0 33 -4 45 -15 45 -11 0 -15 12 -15 45 0 33 -4 45 -15 45
-11 0 -15 12 -15 50 0 38 -4 50 -15 50 -12 0 -15 13 -15 60 0 46 -4 61 -17 69
-15 8 -19 27 -21 100 -3 70 -7 91 -18 91 -11 0 -14 32 -14 175 0 149 -2 175
-15 175 -13 0 -15 21 -15 130 0 109 2 130 15 130 13 0 15 26 15 175 0 143 3
175 14 175 11 0 15 21 18 91 2 73 6 92 21 100 13 8 17 23 17 69 0 47 3 60 15
60 11 0 15 12 15 50 0 38 4 50 15 50 12 0 15 13 15 60 0 47 3 60 15 60 10 0
15 10 15 30 0 18 6 33 15 36 10 4 15 20 15 49 0 34 4 44 20 48 15 4 20 14 20
36 0 21 5 31 15 31 11 0 15 12 15 45 0 33 4 45 15 45 10 0 15 11 15 35 0 24 5
35 15 35 10 0 15 10 15 30 0 20 5 30 15 30 10 0 15 10 15 31 0 22 5 32 20 36
11 3 20 12 20 19 0 8 4 14 9 14 5 0 12 14 16 30 4 17 13 30 21 30 9 0 14 11
14 35 0 19 5 35 10 35 19 0 50 40 50 65 0 14 5 25 11 25 22 0 59 45 59 73 0
17 5 27 15 27 8 0 15 7 15 15 0 8 7 15 15 15 8 0 15 7 15 15 0 8 7 15 15 15
10 0 15 10 15 31 0 22 5 32 20 36 11 3 20 12 20 19 0 8 7 14 15 14 8 0 15 7
15 15 0 8 7 15 15 15 8 0 15 7 15 15 0 8 7 15 15 15 8 0 15 7 15 15 0 8 6 15
14 15 7 0 16 9 19 20 3 11 12 20 21 20 9 0 16 7 16 15 0 8 7 15 15 15 8 0 15
7 15 15 0 8 7 15 15 15 8 0 15 7 15 15 0 8 7 15 15 15 8 0 15 7 15 15 0 8 6
15 14 15 7 0 16 9 19 20 3 11 12 20 21 20 9 0 16 7 16 15 0 8 7 15 15 15 8 0
15 7 15 15 0 8 7 15 15 15 8 0 15 7 15 15 0 8 7 15 15 15 8 0 15 7 15 15 0 8
6 15 14 15 7 0 16 9 19 20 4 15 14 20 36 20 21 0 31 5 31 15 0 8 7 15 15 15 8
0 15 7 15 15 0 8 7 15 15 15 8 0 15 7 15 15 0 10 10 15 28 15 27 0 72 37 72
59 0 6 11 11 25 11 25 0 65 31 65 50 0 6 16 10 35 10 24 0 35 5 35 14 0 8 14
17 30 21 17 4 30 11 30 16 0 5 6 9 14 9 7 0 16 9 19 20 4 15 14 20 36 20 21 0
31 5 31 15 0 10 10 15 30 15 20 0 30 5 30 15 0 10 11 15 35 15 24 0 35 5 35
15 0 10 10 15 30 15 20 0 30 5 30 15 0 11 12 15 46 15 37 0 47 4 51 20 4 14
14 20 33 20 16 0 30 5 32 11 2 6 25 13 51 16 31 4 47 10 47 19 0 10 16 14 60
14 47 0 60 3 60 15 0 11 12 15 50 15 38 0 50 4 50 15 0 11 12 15 49 15 68 0
111 10 111 26 0 11 19 14 80 14 64 0 80 3 80 15 0 13 24 15 160 15 136 0 160
2 160 15 0 13 24 15 160 15 136 0 160 -2 160 -15z m-60 -7360 c0 -13 38 -15
285 -15 247 0 285 -2 285 -15 0 -12 19 -15 110 -15 93 0 110 -2 119 -17 8 -15
27 -19 100 -21 70 -3 91 -7 91 -18 0 -11 20 -14 95 -14 78 0 95 -3 95 -15 0
-12 14 -15 65 -15 51 0 65 -3 65 -15 0 -12 13 -15 60 -15 45 0 62 -4 66 -15 5
-11 22 -15 64 -15 49 0 58 -3 63 -20 4 -16 14 -20 51 -20 34 0 46 -4 46 -15 0
-11 12 -15 50 -15 38 0 50 -4 50 -15 0 -11 12 -15 45 -15 33 0 45 -4 45 -15 0
-11 12 -15 45 -15 31 0 47 -5 51 -15 4 -10 20 -15 49 -15 34 0 44 -4 48 -20 4
-14 14 -20 35 -20 17 0 32 -5 34 -11 2 -5 22 -13 46 -16 26 -3 42 -11 42 -19
0 -9 12 -14 35 -14 24 0 35 -5 35 -15 0 -11 12 -15 45 -15 33 0 45 -4 45 -15
0 -10 10 -15 31 -15 22 0 32 -5 36 -20 4 -14 14 -20 33 -20 16 0 30 -7 34 -15
3 -9 18 -15 36 -15 20 0 30 -5 30 -15 0 -10 10 -15 30 -15 20 0 30 -5 30 -15
0 -10 10 -15 30 -15 20 0 30 -5 30 -15 0 -10 10 -15 31 -15 22 0 32 -5 36 -20
4 -14 14 -20 33 -20 16 0 30 -7 34 -15 3 -9 18 -15 36 -15 20 0 30 -5 30 -15
0 -8 7 -15 15 -15 8 0 15 -7 15 -15 0 -10 10 -15 30 -15 20 0 30 -5 30 -15 0
-10 10 -15 31 -15 22 0 32 -5 36 -20 3 -11 12 -20 19 -20 8 0 14 -7 14 -15 0
-10 10 -15 30 -15 20 0 30 -5 30 -15 0 -10 10 -15 30 -15 20 0 30 -5 30 -15 0
-8 7 -15 15 -15 9 0 18 -7 21 -15 4 -9 19 -15 35 -15 16 0 29 -5 29 -12 0 -22
47 -58 74 -58 16 0 26 -5 26 -15 0 -8 7 -15 15 -15 8 0 15 -7 15 -15 0 -8 7
-15 15 -15 8 0 15 -7 15 -15 0 -10 10 -15 31 -15 22 0 32 -5 36 -20 3 -11 12
-20 19 -20 8 0 14 -7 14 -15 0 -8 7 -15 15 -15 8 0 15 -7 15 -15 0 -10 10 -15
30 -15 20 0 30 -5 30 -15 0 -8 5 -15 11 -15 15 0 59 -42 59 -57 0 -7 7 -13 15
-13 8 0 15 -7 15 -15 0 -10 10 -15 30 -15 20 0 30 -5 30 -15 0 -8 9 -15 20
-15 11 0 20 -4 20 -10 0 -5 9 -19 20 -30 11 -11 25 -20 30 -20 6 0 10 -9 10
-20 0 -11 5 -20 10 -20 6 0 19 -9 30 -20 11 -11 20 -24 20 -30 0 -5 9 -10 20
-10 11 0 20 -7 20 -15 0 -8 7 -15 15 -15 8 0 15 -6 15 -14 0 -8 12 -17 26 -20
15 -4 38 -20 53 -37 14 -16 31 -29 38 -29 7 0 13 -7 13 -15 0 -8 7 -15 15 -15
8 0 15 -7 15 -15 0 -8 7 -15 15 -15 8 0 15 -7 15 -15 0 -8 7 -15 15 -15 8 0
15 -6 15 -12 0 -16 44 -58 59 -58 6 0 11 -13 11 -30 0 -20 5 -30 15 -30 8 0
15 -7 15 -15 0 -8 7 -15 15 -15 8 0 15 -9 15 -20 0 -11 5 -20 10 -20 13 0 50
-37 50 -50 0 -5 9 -10 20 -10 11 0 20 -4 20 -10 0 -5 9 -19 20 -30 11 -11 25
-20 30 -20 6 0 10 -9 10 -20 0 -11 7 -20 15 -20 10 0 15 -10 15 -30 0 -20 5
-30 15 -30 8 0 15 -7 15 -15 0 -8 5 -15 11 -15 15 0 59 -42 59 -57 0 -7 7 -13
15 -13 10 0 15 -10 15 -30 0 -20 5 -30 15 -30 8 0 15 -7 15 -15 0 -8 7 -15 15
-15 8 0 15 -6 15 -14 0 -7 9 -16 20 -19 15 -4 20 -14 20 -36 0 -21 5 -31 15
-31 8 0 15 -7 15 -15 0 -8 7 -15 15 -15 10 0 15 -10 15 -30 0 -20 5 -30 15
-30 8 0 15 -5 15 -11 0 -15 42 -59 58 -59 7 0 12 -13 12 -29 0 -16 6 -31 15
-35 8 -3 15 -12 15 -21 0 -8 7 -15 15 -15 10 0 15 -10 15 -30 0 -20 5 -30 15
-30 10 0 15 -10 15 -30 0 -20 5 -30 15 -30 8 0 15 -6 15 -14 0 -7 9 -16 20
-19 15 -4 20 -14 20 -36 0 -21 5 -31 15 -31 10 0 15 -10 15 -30 0 -20 5 -30
15 -30 8 0 15 -7 15 -15 0 -8 7 -15 15 -15 10 0 15 -10 15 -30 0 -18 6 -33 15
-36 8 -4 15 -18 15 -34 0 -19 6 -29 20 -33 15 -4 20 -14 20 -36 0 -21 5 -31
15 -31 10 0 15 -10 15 -30 0 -20 5 -30 15 -30 10 0 15 -10 15 -30 0 -20 5 -30
15 -30 10 0 15 -10 15 -30 0 -18 6 -33 15 -36 8 -4 15 -18 15 -34 0 -19 6 -29
20 -33 15 -4 20 -14 20 -36 0 -21 5 -31 15 -31 11 0 15 -12 15 -45 0 -33 4
-45 15 -45 10 0 15 -11 15 -35 0 -19 -4 -35 -10 -35 -13 0 -50 -37 -50 -50 0
-5 -9 -10 -20 -10 -11 0 -20 -4 -20 -10 0 -13 -37 -50 -50 -50 -5 0 -10 -9
-10 -20 0 -11 -4 -20 -10 -20 -13 0 -50 -37 -50 -50 0 -5 -9 -10 -20 -10 -11
0 -20 -4 -20 -10 0 -13 -37 -50 -50 -50 -5 0 -10 -9 -10 -20 0 -15 -7 -20 -29
-20 -16 0 -31 -6 -35 -15 -3 -8 -12 -15 -21 -15 -8 0 -15 -7 -15 -15 0 -8 -7
-15 -15 -15 -8 0 -15 -7 -15 -15 0 -8 -7 -15 -15 -15 -8 0 -15 -7 -15 -15 0
-8 -7 -15 -15 -15 -8 0 -15 -5 -15 -11 0 -22 -45 -59 -72 -59 -18 0 -28 -5
-28 -15 0 -8 -7 -15 -15 -15 -8 0 -15 -7 -15 -15 0 -8 -7 -15 -15 -15 -8 0
-15 -7 -15 -15 0 -10 -10 -15 -31 -15 -22 0 -32 -5 -36 -20 -3 -11 -12 -20
-19 -20 -8 0 -14 -7 -14 -15 0 -8 -7 -15 -15 -15 -8 0 -15 -7 -15 -15 0 -8 -7
-15 -15 -15 -8 0 -15 -7 -15 -15 0 -10 -10 -15 -26 -15 -27 0 -74 -36 -74 -57
0 -7 -11 -13 -25 -13 -25 0 -65 -31 -65 -50 0 -5 -9 -10 -20 -10 -11 0 -20 -7
-20 -15 0 -10 -10 -15 -30 -15 -20 0 -30 -5 -30 -15 0 -8 -6 -15 -14 -15 -7 0
-16 -9 -19 -20 -4 -15 -14 -20 -36 -20 -21 0 -31 -5 -31 -15 0 -8 -7 -15 -15
-15 -8 0 -15 -7 -15 -15 0 -10 -10 -15 -30 -15 -20 0 -30 -5 -30 -15 0 -10
-10 -15 -26 -15 -27 0 -74 -36 -74 -57 0 -8 -13 -13 -29 -13 -16 0 -31 -6 -35
-15 -3 -8 -12 -15 -21 -15 -8 0 -15 -7 -15 -15 0 -10 -10 -15 -30 -15 -20 0
-30 -5 -30 -15 0 -10 -10 -15 -30 -15 -20 0 -30 -5 -30 -15 0 -10 -10 -15 -31
-15 -22 0 -32 -5 -36 -20 -3 -11 -12 -20 -19 -20 -8 0 -14 -7 -14 -15 0 -10
-10 -15 -30 -15 -20 0 -30 -5 -30 -15 0 -10 -11 -15 -35 -15 -24 0 -35 -5 -35
-15 0 -10 -10 -15 -30 -15 -20 0 -30 -5 -30 -15 0 -10 -10 -15 -29 -15 -20 0
-30 -6 -34 -20 -4 -15 -14 -20 -36 -20 -21 0 -31 -5 -31 -15 0 -10 -10 -15
-30 -15 -20 0 -30 -5 -30 -15 0 -10 -11 -15 -35 -15 -24 0 -35 -5 -35 -15 0
-10 -10 -15 -30 -15 -20 0 -30 -5 -30 -15 0 -10 -10 -15 -29 -15 -20 0 -30 -6
-34 -20 -4 -16 -14 -20 -51 -20 -34 0 -46 -4 -46 -15 0 -10 -10 -15 -30 -15
-20 0 -30 -5 -30 -15 0 -10 -11 -15 -35 -15 -24 0 -35 -5 -35 -15 0 -11 -12
-15 -45 -15 -33 0 -45 -4 -45 -15 0 -10 -10 -15 -31 -15 -22 0 -32 -5 -36 -20
-4 -16 -14 -20 -48 -20 -29 0 -45 -5 -49 -15 -3 -9 -18 -15 -36 -15 -20 0 -30
-5 -30 -15 0 -11 -12 -15 -45 -15 -33 0 -45 -4 -45 -15 0 -11 -12 -15 -50 -15
-38 0 -50 -4 -50 -15 0 -11 -12 -15 -46 -15 -37 0 -47 -4 -51 -20 -4 -16 -14
-20 -48 -20 -29 0 -45 -5 -49 -15 -4 -11 -21 -15 -66 -15 -47 0 -60 -3 -60
-15 0 -11 -12 -15 -50 -15 -38 0 -50 -4 -50 -15 0 -12 -13 -15 -60 -15 -47 0
-60 -3 -60 -15 0 -12 -14 -15 -64 -15 -55 0 -64 -3 -69 -20 -4 -17 -14 -20
-66 -20 -48 0 -61 -3 -61 -15 0 -12 -16 -15 -80 -15 -64 0 -80 -3 -80 -15 0
-12 -16 -15 -80 -15 -64 0 -80 -3 -80 -15 0 -12 -17 -15 -95 -15 -78 0 -95 -3
-95 -15 0 -12 -19 -15 -111 -15 -102 0 -111 -2 -116 -20 -5 -19 -14 -20 -143
-20 -113 0 -139 -3 -144 -15 -5 -13 -43 -15 -261 -15 -220 0 -255 -2 -255 -15
0 -13 -31 -15 -220 -15 -189 0 -220 2 -220 15 0 13 -35 15 -255 15 -218 0
-256 2 -261 15 -5 12 -31 15 -144 15 -129 0 -138 1 -143 20 -5 18 -14 20 -116
20 -92 0 -111 3 -111 15 0 12 -17 15 -95 15 -78 0 -95 3 -95 15 0 12 -16 15
-80 15 -64 0 -80 3 -80 15 0 12 -16 15 -80 15 -64 0 -80 3 -80 15 0 12 -13 15
-61 15 -52 0 -62 3 -66 20 -5 17 -14 20 -69 20 -50 0 -64 3 -64 15 0 12 -13
15 -60 15 -47 0 -60 3 -60 15 0 11 -12 15 -50 15 -38 0 -50 4 -50 15 0 12 -13
15 -60 15 -45 0 -62 4 -66 15 -4 10 -20 15 -49 15 -34 0 -44 4 -48 20 -4 16
-14 20 -51 20 -34 0 -46 4 -46 15 0 11 -12 15 -50 15 -38 0 -50 4 -50 15 0 11
-12 15 -45 15 -33 0 -45 4 -45 15 0 10 -10 15 -30 15 -18 0 -33 6 -36 15 -4
10 -20 15 -49 15 -34 0 -44 4 -48 20 -4 15 -14 20 -36 20 -21 0 -31 5 -31 15
0 11 -12 15 -45 15 -33 0 -45 4 -45 15 0 10 -11 15 -35 15 -24 0 -35 5 -35 15
0 10 -10 15 -30 15 -20 0 -30 5 -30 15 0 11 -12 15 -46 15 -37 0 -47 4 -51 20
-4 14 -14 20 -34 20 -19 0 -29 5 -29 15 0 10 -10 15 -30 15 -20 0 -30 5 -30
15 0 10 -11 15 -35 15 -24 0 -35 5 -35 15 0 10 -10 15 -30 15 -20 0 -30 5 -30
15 0 10 -10 15 -31 15 -22 0 -32 5 -36 20 -4 14 -14 20 -34 20 -19 0 -29 5
-29 15 0 10 -10 15 -30 15 -20 0 -30 5 -30 15 0 10 -11 15 -35 15 -24 0 -35 5
-35 15 0 10 -10 15 -30 15 -20 0 -30 5 -30 15 0 8 -6 15 -14 15 -7 0 -16 9
-19 20 -4 15 -14 20 -36 20 -21 0 -31 5 -31 15 0 10 -10 15 -30 15 -20 0 -30
5 -30 15 0 10 -10 15 -30 15 -20 0 -30 5 -30 15 0 8 -7 15 -15 15 -9 0 -18 7
-21 15 -4 9 -19 15 -35 15 -16 0 -29 5 -29 11 0 22 -45 59 -72 59 -18 0 -28 5
-28 15 0 10 -10 15 -30 15 -20 0 -30 5 -30 15 0 8 -7 15 -15 15 -8 0 -15 7
-15 15 0 10 -10 15 -31 15 -22 0 -32 5 -36 20 -3 11 -12 20 -19 20 -8 0 -14 7
-14 15 0 10 -10 15 -30 15 -20 0 -30 5 -30 15 0 8 -9 15 -20 15 -11 0 -20 5
-20 10 0 19 -40 50 -65 50 -14 0 -25 5 -25 11 0 22 -45 59 -72 59 -18 0 -28 5
-28 15 0 8 -7 15 -15 15 -8 0 -15 7 -15 15 0 8 -7 15 -15 15 -8 0 -15 7 -15
15 0 8 -6 15 -14 15 -7 0 -16 9 -19 20 -4 15 -14 20 -36 20 -21 0 -31 5 -31
15 0 8 -7 15 -15 15 -8 0 -15 7 -15 15 0 8 -7 15 -15 15 -8 0 -15 7 -15 15 0
10 -10 15 -26 15 -27 0 -74 36 -74 58 0 6 -7 12 -15 12 -8 0 -15 7 -15 15 0 8
-7 15 -15 15 -8 0 -15 7 -15 15 0 8 -7 15 -15 15 -8 0 -15 7 -15 15 0 8 -7 15
-15 15 -9 0 -18 7 -21 15 -4 9 -19 15 -35 15 -22 0 -29 5 -29 20 0 11 -4 20
-10 20 -13 0 -50 37 -50 50 0 6 -9 10 -20 10 -11 0 -20 5 -20 10 0 13 -37 50
-50 50 -6 0 -10 9 -10 20 0 11 -4 20 -10 20 -13 0 -50 37 -50 50 0 6 -9 10
-20 10 -11 0 -20 5 -20 10 0 13 -37 50 -50 50 -6 0 -10 16 -10 35 0 24 5 35
15 35 11 0 15 12 15 45 0 33 4 45 15 45 10 0 15 10 15 31 0 22 5 32 20 36 14
4 20 14 20 33 0 16 7 30 15 34 9 3 15 18 15 36 0 20 5 30 15 30 10 0 15 10 15
30 0 20 5 30 15 30 10 0 15 10 15 30 0 20 5 30 15 30 10 0 15 10 15 31 0 22 5
32 20 36 14 4 20 14 20 33 0 16 7 30 15 34 9 3 15 18 15 36 0 20 5 30 15 30 8
0 15 7 15 15 0 8 7 15 15 15 10 0 15 10 15 30 0 20 5 30 15 30 10 0 15 10 15
31 0 22 5 32 20 36 11 3 20 12 20 19 0 8 7 14 15 14 10 0 15 10 15 30 0 20 5
30 15 30 10 0 15 10 15 30 0 20 5 30 15 30 8 0 15 7 15 15 0 9 7 18 15 21 9 4
15 19 15 35 0 16 5 29 11 29 20 0 59 44 59 68 0 13 6 22 15 22 8 0 15 9 15 20
0 11 7 20 15 20 8 0 15 7 15 15 0 8 7 15 15 15 10 0 15 10 15 31 0 22 5 32 20
36 11 3 20 12 20 19 0 8 7 14 15 14 8 0 15 7 15 15 0 8 7 15 15 15 10 0 15 10
15 30 0 20 5 30 15 30 8 0 15 6 15 13 0 15 44 57 59 57 6 0 11 7 11 15 0 8 7
15 15 15 10 0 15 10 15 30 0 20 5 30 15 30 8 0 15 9 15 20 0 11 5 20 10 20 13
0 50 37 50 50 0 6 9 10 20 10 11 0 20 5 20 10 0 13 37 50 50 50 6 0 10 9 10
20 0 11 7 20 15 20 8 0 15 7 15 15 0 8 7 15 15 15 10 0 15 10 15 30 0 17 5 30
11 30 15 0 59 42 59 58 0 6 7 12 15 12 8 0 15 7 15 15 0 8 7 15 15 15 8 0 15
7 15 15 0 8 7 15 15 15 8 0 15 7 15 15 0 8 5 15 11 15 15 0 59 42 59 58 0 6 7
12 15 12 8 0 15 4 15 9 0 5 14 12 30 16 17 4 30 13 30 21 0 8 9 14 20 14 11 0
20 5 20 10 0 6 9 19 20 30 11 11 25 20 30 20 6 0 10 9 10 20 0 11 4 20 10 20
13 0 50 37 50 50 0 6 9 10 20 10 11 0 20 7 20 15 0 10 10 15 30 15 20 0 30 5
30 15 0 8 7 15 15 15 8 0 15 6 15 13 0 15 44 57 59 57 6 0 11 7 11 15 0 10 10
15 30 15 20 0 30 5 30 15 0 8 7 15 15 15 8 0 15 7 15 15 0 8 6 15 14 15 7 0
16 9 19 20 4 15 14 20 36 20 21 0 31 5 31 15 0 8 7 15 15 15 8 0 15 7 15 15 0
8 7 15 15 15 8 0 15 7 15 15 0 10 10 15 26 15 27 0 74 36 74 58 0 6 11 12 25
12 25 0 65 31 65 50 0 6 16 10 35 10 24 0 35 5 35 15 0 10 10 15 30 15 20 0
30 5 30 15 0 8 6 15 14 15 7 0 16 9 19 20 4 15 14 20 36 20 21 0 31 5 31 15 0
10 10 15 30 15 20 0 30 5 30 15 0 8 7 15 15 15 8 0 15 7 15 15 0 10 10 15 30
15 18 0 33 6 36 15 4 8 18 15 34 15 19 0 29 6 33 20 4 15 14 20 36 20 21 0 31
5 31 15 0 10 10 15 30 15 20 0 30 5 30 15 0 10 10 15 30 15 20 0 30 5 30 15 0
10 10 15 30 15 18 0 33 6 36 15 4 8 18 15 34 15 19 0 29 6 33 20 4 15 14 20
36 20 21 0 31 5 31 15 0 11 12 15 45 15 33 0 45 4 45 15 0 10 11 15 35 15 24
0 35 5 35 15 0 10 10 15 30 15 20 0 30 5 30 15 0 11 12 15 46 15 37 0 47 4 51
20 4 16 14 20 48 20 29 0 45 5 49 15 4 10 20 15 51 15 33 0 45 4 45 15 0 11
12 15 45 15 33 0 45 4 45 15 0 11 12 15 50 15 38 0 50 4 50 15 0 11 12 15 46
15 37 0 47 4 51 20 5 17 14 20 63 20 42 0 59 4 64 15 4 11 21 15 66 15 47 0
60 3 60 15 0 12 14 15 65 15 51 0 65 3 65 15 0 12 17 15 95 15 75 0 95 3 95
14 0 11 21 15 91 18 73 2 92 6 100 21 9 15 26 17 119 17 91 0 110 3 110 15 0
13 38 15 285 15 247 0 285 2 285 15 0 12 18 15 100 15 82 0 100 -3 100 -15z"/>
</g>
</svg>
