<svg width="23" height="33" viewBox="0 0 23 33" fill="none" xmlns="http://www.w3.org/2000/svg">
<g id="placeholder-2">
<path id="Shape" fill-rule="evenodd" clip-rule="evenodd" d="M0 11.4706C0 5.14578 5.0468 0 11.25 0C17.4534 0 22.5 5.14578 22.5 11.4706C22.5 19.0294 11.2611 33 11.2611 33C11.2611 33 0 19.4203 0 11.4706ZM11.25 16.2605C12.4793 16.2605 13.7084 15.7834 14.6444 14.8293C16.5161 12.921 16.5161 9.81601 14.6444 7.90759C13.7376 6.98329 12.5322 6.47391 11.25 6.47391C9.96776 6.47391 8.76216 6.98309 7.85584 7.90759C5.98413 9.81601 5.98413 12.921 7.85584 14.8293C8.7914 15.7834 10.0209 16.2605 11.25 16.2605Z" fill="black"/>
</g>
</svg>
