<svg width="11" height="14" viewBox="0 0 11 14" fill="none" xmlns="http://www.w3.org/2000/svg">
<path fill-rule="evenodd" clip-rule="evenodd" d="M6.11258 0.0300259C7.94209 0.211419 9.55151 1.29278 10.3833 2.8995C11.4368 4.96204 11.1214 7.44282 9.58385 9.18925L5.91701 13.557C5.81447 13.6792 5.66148 13.75 5.50001 13.75C5.33854 13.75 5.18554 13.6792 5.08301 13.557L1.41616 9.18925C-0.121446 7.44272 -0.43676 4.96186 0.616713 2.89923C1.44883 1.29272 3.05824 0.211536 4.88771 0.0300259C5.29497 -0.0100086 5.70531 -0.0100086 6.11258 0.0300259ZM3.34079 5.28813C3.34079 6.45645 4.3075 7.40356 5.50001 7.40356C6.69193 7.40219 7.65783 6.45589 7.65923 5.28813C7.65923 4.11982 6.69251 3.17271 5.50001 3.17271C4.3075 3.17271 3.34079 4.11982 3.34079 5.28813Z" fill="url(#paint0_linear_1_3167)"/>
<defs>
<linearGradient id="paint0_linear_1_3167" x1="9.27906" y1="27.3587" x2="23.3965" y2="13.0112" gradientUnits="userSpaceOnUse">
<stop stop-color="#5C5E9B" stop-opacity="0.985973"/>
<stop offset="1" stop-color="#7CFAF7"/>
</linearGradient>
</defs>
</svg>
