<svg width="19" height="12" viewBox="0 0 19 12" fill="none" xmlns="http://www.w3.org/2000/svg">
<path fill-rule="evenodd" clip-rule="evenodd" d="M9.5 0C5.86985 0 2.57784 1.99911 0.148665 5.24619C-0.0495551 5.51222 -0.0495551 5.88387 0.148665 6.1499C2.57784 9.40089 5.86985 11.4 9.5 11.4C13.1302 11.4 16.4222 9.40089 18.8513 6.15381C19.0496 5.88778 19.0496 5.51613 18.8513 5.2501C16.4222 1.99911 13.1302 0 9.5 0ZM9.76041 9.71386C7.35067 9.86644 5.36069 7.86733 5.51227 5.43789C5.63665 3.43487 7.24962 1.81132 9.23959 1.68614C11.6493 1.53356 13.6393 3.53267 13.4877 5.96211C13.3595 7.96122 11.7465 9.58476 9.76041 9.71386ZM7.35456 5.55916C7.26905 6.86582 8.34177 7.94166 9.63992 7.85951C10.7088 7.793 11.5794 6.92059 11.6493 5.83693C11.7348 4.53027 10.6621 3.45443 9.36397 3.53658C8.29124 3.607 7.42063 4.47941 7.35456 5.55916Z" fill="url(#paint0_linear_1_3591)"/>
<defs>
<linearGradient id="paint0_linear_1_3591" x1="16.0275" y1="22.6828" x2="25.0684" y2="3.54061" gradientUnits="userSpaceOnUse">
<stop stop-color="#5C5E9B" stop-opacity="0.985973"/>
<stop offset="1" stop-color="#7CFAF7"/>
</linearGradient>
</defs>
</svg>
