<svg width="45" height="45" viewBox="0 0 45 45" fill="none" xmlns="http://www.w3.org/2000/svg">
<g id="logo-logo">
<g id="Group">
<g id="Group_2">
<path id="Path" d="M45 22.5C45 26.4005 44.0851 30.1107 42.2634 33.2622C38.1383 40.3992 19.3343 43.9151 23.9412 23.6396C31.1227 23.2287 37.5857 21.6883 37.6828 16.0127C34.7661 17.5733 29.7304 17.8585 25.2247 17.9678C26.3765 15.381 28.6594 12.5981 30.6572 9.49511C23.3663 7.9669 19.5286 12.7276 18.2271 18.1664C11.6508 18.4154 5.74644 19.4314 5.74644 24.5707C6.16139 24.3885 6.68765 24.2468 7.30501 24.1395C9.55175 23.7469 13.019 23.7873 16.8183 23.7894C14.9015 35.1183 18.9558 44.7247 28.6088 44.16C27.8882 44.3624 27.1555 44.5304 26.4086 44.662C26.3984 44.664 26.3903 44.666 26.3822 44.666C25.9106 44.749 25.4329 44.8158 24.9532 44.8664C24.1476 44.9555 23.3279 45 22.5 45C10.074 45 0 34.926 0 22.5C0 10.1044 10.0234 0.0506037 22.4069 0.00203036C22.4373 0 22.4696 0 22.5 0C34.926 -3.92516e-08 45 10.074 45 22.5Z" fill="#8BCFDA"/>
</g>
<g id="Group_3">
<path id="Path_2" d="M45 22.5C45 26.4005 44.0851 30.1107 42.2634 33.2622C38.1383 40.3992 19.3343 43.9151 23.9412 23.6396C31.1227 23.2287 37.5857 21.6883 37.6828 16.0127C34.7661 17.5733 29.7304 17.8585 25.2247 17.9678C26.3765 15.381 28.6594 12.5981 30.6572 9.49511C23.3663 7.9669 19.5286 12.7276 18.2271 18.1664C11.6508 18.4154 5.74644 19.4314 5.74644 24.5707V26.8842C5.74644 37.5897 14.9885 45.7854 25.2265 44.8138L24.9532 44.8664C24.1476 44.9555 23.3279 45 22.5 45C10.074 45 0 34.926 0 22.5C0 10.1044 10.0234 0.0506037 22.4069 0.00203036C22.4373 0 22.4696 0 22.5 0C34.926 -3.92515e-08 45 10.074 45 22.5Z" fill="url(#paint0_linear_61_278)"/>
</g>
<g id="Group_4">
<path id="Path_3" d="M44.9994 22.5C44.9994 26.4005 44.0845 30.1107 42.2628 33.2622C38.1376 40.3992 19.3337 43.9151 23.9405 23.6396C31.1221 23.2287 37.5851 21.6883 37.6822 16.0127V15.3832C37.6822 7.08236 31.1018 0.188244 22.803 0.00607912C22.6714 0.00203036 22.5398 -3.92902e-08 22.4062 0.00203036C22.4366 0 22.469 0 22.4994 0C34.9254 -7.85031e-08 44.9994 10.074 44.9994 22.5Z" fill="url(#paint1_linear_61_278)"/>
</g>
</g>
</g>
<defs>
<linearGradient id="paint0_linear_61_278" x1="8.83402" y1="-7.55107" x2="-13.666" y2="19.7809" gradientUnits="userSpaceOnUse">
<stop stop-color="#5C5E9B"/>
<stop offset="1" stop-color="#6DC3D2"/>
</linearGradient>
<linearGradient id="paint1_linear_61_278" x1="36.5016" y1="52.1951" x2="58.5738" y2="40.5982" gradientUnits="userSpaceOnUse">
<stop stop-color="#2C9BA2"/>
<stop offset="1" stop-color="#7CFAF7"/>
</linearGradient>
</defs>
</svg>
