<svg width="132" height="132" viewBox="0 0 132 132" fill="none" xmlns="http://www.w3.org/2000/svg">
<g id="logo-logo">
<g id="Group">
<g id="Group_2">
<path id="Path" d="M132 66C132 77.4413 129.316 88.3246 123.973 97.5691C111.872 118.504 56.714 128.818 70.2275 69.3429C91.2934 68.1374 110.251 63.6191 110.536 46.9707C101.981 51.5484 87.2092 52.3851 73.9926 52.7057C77.371 45.1177 84.0675 36.9543 89.9277 27.8523C68.5412 23.3696 57.2839 37.3343 53.4662 53.2881C34.1756 54.0184 16.8562 56.9989 16.8562 72.074C18.0734 71.5396 19.6171 71.124 21.428 70.8093C28.0185 69.6575 38.1891 69.7762 49.3336 69.7821C43.711 103.014 55.6036 131.193 83.919 129.536C81.8053 130.13 79.656 130.623 77.4651 131.008C77.4354 131.014 77.4116 131.02 77.3879 131.02C76.0045 131.264 74.6033 131.46 73.1961 131.608C70.833 131.869 68.4284 132 66 132C29.5504 132 0 102.45 0 66C0 29.6395 29.4019 0.148437 65.7269 0.00595574C65.816 0 65.9109 0 66 0C102.45 -1.15138e-07 132 29.5504 132 66Z" fill="#8BCFDA"/>
</g>
<g id="Group_3">
<path id="Path_2" d="M132 66C132 77.4413 129.316 88.3246 123.973 97.5691C111.872 118.504 56.714 128.818 70.2275 69.3428C91.2933 68.1375 110.251 63.6191 110.536 46.9707C101.981 51.5484 87.2092 52.3851 73.9926 52.7057C77.371 45.1177 84.0675 36.9543 89.9277 27.8523C68.5412 23.3696 57.2839 37.3343 53.4662 53.2881C34.1756 54.0184 16.8562 56.9989 16.8562 72.074V78.8604C16.8562 110.263 43.9664 134.304 73.9976 131.454L73.1961 131.608C70.833 131.869 68.4284 132 66 132C29.5504 132 0 102.45 0 66C0 29.6395 29.4019 0.148437 65.7269 0.00595574C65.816 0 65.9109 0 66 0C102.45 -1.15138e-07 132 29.5504 132 66Z" fill="url(#paint0_linear_62_252)"/>
</g>
<g id="Group_4">
<path id="Path_3" d="M132.001 66C132.001 77.4413 129.317 88.3246 123.973 97.5691C111.873 118.504 56.7146 128.818 70.2281 69.3428C91.294 68.1375 110.252 63.6191 110.537 46.9707V45.1242C110.537 20.7749 91.2346 0.552182 66.8913 0.0178321C66.5053 0.00595574 66.1194 -1.15251e-07 65.7275 0.00595574C65.8166 0 65.9116 0 66.0007 0C102.45 -2.30276e-07 132.001 29.5504 132.001 66Z" fill="url(#paint1_linear_62_252)"/>
</g>
</g>
</g>
<defs>
<linearGradient id="paint0_linear_62_252" x1="25.9131" y1="-22.1498" x2="-40.0869" y2="58.0239" gradientUnits="userSpaceOnUse">
<stop stop-color="#5C5E9B"/>
<stop offset="1" stop-color="#6DC3D2"/>
</linearGradient>
<linearGradient id="paint1_linear_62_252" x1="107.074" y1="153.106" x2="171.819" y2="119.088" gradientUnits="userSpaceOnUse">
<stop stop-color="#2C9BA2"/>
<stop offset="1" stop-color="#7CFAF7"/>
</linearGradient>
</defs>
</svg>
