<svg width="204" height="54" viewBox="0 0 204 54" fill="none" xmlns="http://www.w3.org/2000/svg">
<g id="logo-logo">
<g id="Group">
<g id="Group_2">
<path id="Path" d="M51 28.5C51 32.9205 49.9631 37.1254 47.8985 40.6972C43.2234 48.7858 21.9122 52.7704 27.1333 29.7916C35.2724 29.3258 42.5971 27.5801 42.7072 21.1478C39.4016 22.9164 33.6945 23.2397 28.588 23.3636C29.8933 20.4318 32.4806 17.2778 34.7448 13.7611C26.4818 12.0292 22.1324 17.4246 20.6574 23.5886C13.2042 23.8707 6.51263 25.0223 6.51263 30.8468C6.98291 30.6403 7.57934 30.4797 8.27901 30.3581C10.8253 29.9131 14.7549 29.959 19.0607 29.9613C16.8884 42.8007 21.4832 53.688 32.4233 53.048C31.6066 53.2774 30.7762 53.4678 29.9297 53.6169C29.9182 53.6192 29.909 53.6215 29.8999 53.6215C29.3654 53.7155 28.824 53.7913 28.2803 53.8486C27.3673 53.9495 26.4382 54 25.5 54C11.4172 54 0 42.5828 0 28.5C0 14.4516 11.3598 3.05735 25.3945 3.0023C25.4289 3 25.4656 3 25.5 3C39.5828 3 51 14.4172 51 28.5Z" fill="#8BCFDA"/>
</g>
<g id="Group_3">
<path id="Path_2" d="M51 28.5C51 32.9205 49.9631 37.1254 47.8985 40.6972C43.2234 48.7858 21.9122 52.7704 27.1333 29.7915C35.2724 29.3258 42.5971 27.5801 42.7072 21.1478C39.4016 22.9164 33.6945 23.2397 28.588 23.3636C29.8933 20.4318 32.4806 17.2778 34.7448 13.7611C26.4818 12.0292 22.1324 17.4246 20.6574 23.5886C13.2042 23.8707 6.51263 25.0223 6.51263 30.8468V33.4688C6.51263 45.6017 16.987 54.8901 28.59 53.789L28.2803 53.8486C27.3673 53.9495 26.4382 54 25.5 54C11.4172 54 0 42.5828 0 28.5C0 14.4516 11.3598 3.05735 25.3945 3.0023C25.4289 3 25.4656 3 25.5 3C39.5828 3 51 14.4172 51 28.5Z" fill="url(#paint0_linear_518_344)"/>
</g>
<g id="Group_4">
<path id="Path_3" d="M51.0001 28.5C51.0001 32.9205 49.9632 37.1254 47.8986 40.6972C43.2234 48.7858 21.9123 52.7704 27.1334 29.7915C35.2725 29.3258 42.5972 27.5801 42.7073 21.1478V20.4343C42.7073 11.0267 35.2495 3.21334 25.8442 3.00689C25.695 3.0023 25.5459 3 25.3945 3.0023C25.429 3 25.4656 3 25.5001 3C39.5829 3 51.0001 14.4172 51.0001 28.5Z" fill="url(#paint1_linear_518_344)"/>
</g>
</g>
<path id="troving" d="M80.9268 19.6406V23.8037H73.8721V31.7812C73.8721 32.7383 74.1318 33.4971 74.6514 34.0576C75.1846 34.6045 75.916 34.8779 76.8457 34.8779C78.1035 34.8779 79.4639 34.502 80.9268 33.75V38.1592C78.9854 38.9658 77.1055 39.3691 75.2871 39.3691C72.9082 39.3691 71.0625 38.7539 69.75 37.5234C68.4375 36.293 67.7812 34.4883 67.7812 32.1094V23.8037H65.0127V22.6143L73.1133 13.5498H73.8721V19.6406H80.9268ZM90.3398 19.6406V25.1777H90.4219C92.1855 21.2266 94.2432 19.251 96.5947 19.251C97.7158 19.251 99.0625 19.8389 100.635 21.0146L98.9531 26.4082C97.4492 25.4512 96.2461 24.9727 95.3438 24.9727C93.9355 24.9727 92.7461 25.8477 91.7754 27.5977C90.8184 29.334 90.3398 30.3457 90.3398 30.6328V39H84.249V19.6406H90.3398ZM111.832 19.251C114.867 19.251 117.438 20.1396 119.543 21.917C121.662 23.6943 122.722 26.1689 122.722 29.3408C122.722 32.5264 121.648 34.9941 119.502 36.7441C117.355 38.4941 114.799 39.3691 111.832 39.3691C108.619 39.3691 105.987 38.4395 103.937 36.5801C101.899 34.707 100.881 32.2803 100.881 29.2998C100.881 26.2646 101.92 23.8311 103.998 21.999C106.09 20.167 108.701 19.251 111.832 19.251ZM111.832 35.7598C114.744 35.7598 116.2 33.5654 116.2 29.1768C116.2 24.9795 114.744 22.8809 111.832 22.8809C110.438 22.8809 109.344 23.4346 108.551 24.542C107.771 25.6494 107.382 27.2354 107.382 29.2998C107.382 33.6064 108.865 35.7598 111.832 35.7598ZM131.643 39.3691L122.701 19.6406H129.223L133.324 30.3047L137.487 19.6406H143.947L135.047 39.3691H131.643ZM146.347 13.3447C146.347 12.415 146.675 11.6221 147.331 10.9658C147.987 10.3096 148.773 9.98145 149.689 9.98145C150.619 9.98145 151.412 10.3096 152.068 10.9658C152.725 11.6221 153.053 12.415 153.053 13.3447C153.053 14.2607 152.725 15.0537 152.068 15.7236C151.412 16.3799 150.619 16.708 149.689 16.708C148.773 16.708 147.987 16.3799 147.331 15.7236C146.675 15.0537 146.347 14.2607 146.347 13.3447ZM152.766 19.6406V39H146.675V19.6406H152.766ZM164.045 19.6406V22.4092C165.836 20.3037 167.935 19.251 170.341 19.251C172.351 19.251 174.025 19.8936 175.365 21.1787C176.719 22.4639 177.396 24.3027 177.396 26.6953V39H171.305V27.208C171.305 24.624 170.3 23.332 168.29 23.332C166.854 23.332 165.439 24.3984 164.045 26.5312V39H157.954V19.6406H164.045ZM202.169 19.6406V23.7217H199.4C200.043 24.8154 200.364 25.8887 200.364 26.9414C200.364 28.4453 199.804 29.833 198.683 31.1045C197.562 32.376 195.9 33.1348 193.699 33.3809C191.512 33.6133 190.268 33.8389 189.967 34.0576C189.68 34.2627 189.536 34.5361 189.536 34.8779C189.536 35.2197 189.728 35.5 190.11 35.7188C190.493 35.9238 191.997 36.1426 194.622 36.375C197.261 36.5938 199.093 37.2842 200.118 38.4463C201.157 39.5947 201.677 40.832 201.677 42.1582C201.677 44.2773 200.795 45.8906 199.031 46.998C197.281 48.1055 194.745 48.6592 191.423 48.6592C188.032 48.6592 185.462 48.1465 183.712 47.1211C181.962 46.0957 181.087 44.7354 181.087 43.04C181.087 40.6885 182.81 39.0479 186.255 38.1182C184.696 37.6533 183.917 36.8125 183.917 35.5957C183.917 34.1738 185.093 33.1963 187.444 32.6631C185.872 32.3896 184.573 31.7061 183.548 30.6123C182.522 29.5186 182.01 28.2129 182.01 26.6953C182.01 24.8359 182.748 23.1953 184.225 21.7734C185.701 20.3516 187.848 19.6406 190.664 19.6406H202.169ZM191.218 23.25C190.22 23.25 189.379 23.5918 188.695 24.2754C188.025 24.959 187.69 25.793 187.69 26.7773C187.69 27.7207 188.039 28.541 188.736 29.2383C189.434 29.9219 190.261 30.2637 191.218 30.2637C192.175 30.2637 192.995 29.9014 193.679 29.1768C194.362 28.4521 194.704 27.584 194.704 26.5723C194.704 25.6562 194.369 24.877 193.699 24.2344C193.043 23.5781 192.216 23.25 191.218 23.25ZM191.71 45.0498C193.009 45.0498 194.062 44.8105 194.868 44.332C195.675 43.8535 196.078 43.2793 196.078 42.6094C196.078 41.1875 194.499 40.4766 191.341 40.4766C189.905 40.4766 188.777 40.6816 187.957 41.0918C187.137 41.5156 186.727 42.0762 186.727 42.7734C186.727 44.291 188.388 45.0498 191.71 45.0498Z" fill="white"/>
</g>
<defs>
<linearGradient id="paint0_linear_518_344" x1="10.0119" y1="-5.55788" x2="-15.4881" y2="25.4183" gradientUnits="userSpaceOnUse">
<stop stop-color="#5C5E9B"/>
<stop offset="1" stop-color="#6DC3D2"/>
</linearGradient>
<linearGradient id="paint1_linear_518_344" x1="41.3693" y1="62.1544" x2="66.3844" y2="49.0113" gradientUnits="userSpaceOnUse">
<stop stop-color="#2C9BA2"/>
<stop offset="1" stop-color="#7CFAF7"/>
</linearGradient>
</defs>
</svg>
