<svg width="28" height="28" viewBox="0 0 28 28" fill="none" xmlns="http://www.w3.org/2000/svg">
<path d="M14.0002 18.6663C12.7168 18.6663 11.6668 19.7163 11.6668 20.9997C11.6668 22.283 12.7168 23.333 14.0002 23.333C15.2835 23.333 16.3335 22.283 16.3335 20.9997C16.3335 19.7163 15.2835 18.6663 14.0002 18.6663ZM14.0002 16.333C15.2835 16.333 16.3335 15.283 16.3335 13.9997C16.3335 12.7163 15.2835 11.6663 14.0002 11.6663C12.7168 11.6663 11.6668 12.7163 11.6668 13.9997C11.6668 15.283 12.7168 16.333 14.0002 16.333ZM14.0002 9.33301C15.2835 9.33301 16.3335 8.28301 16.3335 6.99968C16.3335 5.71634 15.2835 4.66634 14.0002 4.66634C12.7168 4.66634 11.6668 5.71634 11.6668 6.99968C11.6668 8.28301 12.7168 9.33301 14.0002 9.33301Z" fill="black"/>
</svg>
