<svg width="11" height="17" viewBox="0 0 11 17" fill="none" xmlns="http://www.w3.org/2000/svg">
<path fill-rule="evenodd" clip-rule="evenodd" d="M7.1233 8.64241L1.33773 14.5485C0.811413 15.0858 0.811413 15.9569 1.33773 16.4942C1.86404 17.0314 2.71736 17.0314 3.24367 16.4942L9.98222 9.61524C10.5085 9.07796 10.5085 8.20686 9.98222 7.66958L3.24367 0.790654C2.71736 0.253376 1.86404 0.253376 1.33773 0.790654C0.811413 1.32793 0.811413 2.19903 1.33773 2.73631L7.1233 8.64241Z" fill="#121212"/>
<mask id="mask0_1_493" style="mask-type:luminance" maskUnits="userSpaceOnUse" x="0" y="0" width="11" height="17">
<path fill-rule="evenodd" clip-rule="evenodd" d="M7.1233 8.64241L1.33773 14.5485C0.811413 15.0858 0.811413 15.9569 1.33773 16.4942C1.86404 17.0314 2.71736 17.0314 3.24367 16.4942L9.98222 9.61524C10.5085 9.07796 10.5085 8.20686 9.98222 7.66958L3.24367 0.790654C2.71736 0.253376 1.86404 0.253376 1.33773 0.790654C0.811413 1.32793 0.811413 2.19903 1.33773 2.73631L7.1233 8.64241Z" fill="white"/>
</mask>
<g mask="url(#mask0_1_493)">
</g>
</svg>
