<svg width="24" height="24" viewBox="0 0 24 24" fill="none" xmlns="http://www.w3.org/2000/svg">
<g id="Warning / Shield_Check" clip-path="url(#clip0_620_572)">
<g id="Vector">
<path d="M13.2729 23.7103C16.1689 22.4283 23 18.4683 23 9.6354V4.29913C23 2.79579 23 2.04299 22.7006 1.46822C22.4369 0.962152 22.0151 0.551001 21.4977 0.293144C20.9094 0 20.1404 0 18.6003 0H5.40027C3.86012 0 3.08948 0 2.50122 0.293144C1.98377 0.551001 1.56338 0.962152 1.29973 1.46822C1 2.04355 1 2.79726 1 4.30355V9.63539C1 18.4682 7.83072 22.4283 10.7267 23.7103C11.0337 23.8462 11.188 23.9141 11.5354 23.9724C11.7546 24.0092 12.2468 24.0092 12.4659 23.9724C12.812 23.9143 12.9647 23.8467 13.2693 23.7119L13.2729 23.7103Z" fill="#363636"/>
<path d="M16.125 8.06867L10.625 13.4478L7.875 10.7582M23 9.6354C23 18.4682 16.1689 22.4283 13.2729 23.7103L13.2693 23.7119C12.9647 23.8467 12.812 23.9143 12.4659 23.9724C12.2468 24.0092 11.7546 24.0092 11.5354 23.9724C11.188 23.9141 11.0337 23.8462 10.7267 23.7103C7.83072 22.4283 1 18.4682 1 9.63539V4.30355C1 2.79726 1 2.04355 1.29973 1.46822C1.56338 0.962152 1.98377 0.551001 2.50122 0.293144C3.08948 0 3.86012 0 5.40027 0H18.6003C20.1404 0 20.9094 0 21.4977 0.293144C22.0151 0.551001 22.4369 0.962152 22.7006 1.46822C23 2.04299 23 2.79579 23 4.29913V9.6354Z" stroke="white" stroke-width="2" stroke-linecap="round" stroke-linejoin="round"/>
</g>
</g>
<defs>
<clipPath id="clip0_620_572">
<rect width="24" height="24" fill="white"/>
</clipPath>
</defs>
</svg>
