<svg width="20" height="22" viewBox="0 0 20 22" fill="none" xmlns="http://www.w3.org/2000/svg">
<path d="M17.6 2.2H16.5V0H14.3V2.2H5.5V0H3.3V2.2H2.2C0.99 2.2 0 3.19 0 4.4V19.8C0 20.3835 0.231785 20.9431 0.644365 21.3556C1.05695 21.7682 1.61652 22 2.2 22H17.6C18.821 22 19.8 21.021 19.8 19.8V4.4C19.8 3.81652 19.5682 3.25695 19.1556 2.84437C18.7431 2.43179 18.1835 2.2 17.6 2.2ZM17.6 19.8H2.2V8.8H17.6V19.8ZM2.2 6.6V4.4H17.6V6.6H2.2ZM8.316 18.106L14.85 11.583L13.673 10.417L8.316 15.774L5.995 13.453L4.829 14.619L8.316 18.106Z" fill="black"/>
</svg>
