<svg width="26" height="26" viewBox="0 0 26 26" fill="none" xmlns="http://www.w3.org/2000/svg">
<path d="M20.5833 3.24967H19.5V1.08301H17.3333V3.24967H8.66667V1.08301H6.5V3.24967H5.41667C4.225 3.24967 3.25 4.22467 3.25 5.41634V20.583C3.25 21.1576 3.47827 21.7087 3.8846 22.1151C4.29093 22.5214 4.84203 22.7497 5.41667 22.7497H20.5833C21.7858 22.7497 22.75 21.7855 22.75 20.583V5.41634C22.75 4.84171 22.5217 4.29061 22.1154 3.88428C21.7091 3.47795 21.158 3.24967 20.5833 3.24967ZM20.5833 20.583H5.41667V9.74967H20.5833V20.583ZM5.41667 7.58301V5.41634H20.5833V7.58301H5.41667ZM11.44 18.9147L17.875 12.4905L16.7158 11.3422L11.44 16.618L9.15417 14.3322L8.00583 15.4805L11.44 18.9147Z" fill="url(#paint0_linear_431_389)"/>
<defs>
<linearGradient id="paint0_linear_431_389" x1="4" y1="22" x2="23" y2="0.999998" gradientUnits="userSpaceOnUse">
<stop stop-color="#5E609C"/>
<stop offset="1" stop-color="#68E2E2"/>
</linearGradient>
</defs>
</svg>
