<svg width="33" height="33" viewBox="0 0 33 33" fill="none" xmlns="http://www.w3.org/2000/svg">
<g id="svgexport-6 - 2022-11-13T021656.440">
<path id="Path" d="M11.8382 9.523L15.4059 5.93495V24.9156C15.4059 25.8756 16.1797 26.6538 17.1343 26.6538C18.0889 26.6538 18.8627 25.8756 18.8627 24.9156V5.93495L22.4303 9.523C22.8666 9.96412 23.504 10.1371 24.1017 9.97665C24.6993 9.81617 25.1662 9.34667 25.3257 8.74557C25.4853 8.14446 25.3133 7.50343 24.8747 7.06469L18.3565 0.509165C18.0323 0.183153 17.5927 0 17.1343 0C16.6759 0 16.2362 0.183153 15.9121 0.509165L9.39388 7.06469C8.95527 7.50343 8.78324 8.14446 8.94281 8.74557C9.10238 9.34667 9.56921 9.81617 10.1669 9.97665C10.7646 10.1371 11.402 9.96412 11.8382 9.523Z" fill="black"/>
<path id="Path_2" d="M31.2931 15.23C30.3504 15.23 29.5862 15.9758 29.5862 16.8958V29.6675H3.41379V16.8958C3.41379 15.9758 2.64959 15.23 1.7069 15.23C0.764204 15.23 0 15.9758 0 16.8958V30.2228C0 31.7562 1.27367 32.9992 2.84483 32.9992H30.1552C31.7263 32.9992 33 31.7562 33 30.2228V16.8958C33 15.9758 32.2358 15.23 31.2931 15.23V15.23Z" fill="black"/>
</g>
</svg>
