<svg width="19" height="19" viewBox="0 0 19 19" fill="none" xmlns="http://www.w3.org/2000/svg">
<path fill-rule="evenodd" clip-rule="evenodd" d="M0 8.5251C0 3.82701 3.82831 0 8.52798 0C13.2277 0 17.0578 3.82701 17.0578 8.5251C17.0578 10.5341 16.3535 12.3825 15.1845 13.8433L18.7368 17.3944C19.0937 17.7676 19.0868 18.3575 18.7213 18.7224C18.3559 19.0872 17.7657 19.0932 17.3929 18.7359L13.8406 15.1868C12.3815 16.3544 10.5354 17.0576 8.52798 17.0576C3.82831 17.0576 0 13.2232 0 8.5251ZM15.1604 8.5251C15.1604 4.8511 12.2032 1.89489 8.52798 1.89489C4.85273 1.89489 1.89552 4.8511 1.89552 8.5251C1.89552 12.1991 4.85273 15.1627 8.52798 15.1627C12.2032 15.1627 15.1604 12.1991 15.1604 8.5251Z" fill="#464646"/>
</svg>
