<svg width="25" height="25" viewBox="0 0 25 25" fill="none" xmlns="http://www.w3.org/2000/svg">
<path fill-rule="evenodd" clip-rule="evenodd" d="M0 11.2172C0 5.03554 5.03725 0 11.221 0C17.4048 0 22.4445 5.03554 22.4445 11.2172C22.4445 13.8607 21.5178 16.2927 19.9796 18.2149L24.6536 22.8873C25.1232 23.3784 25.1142 24.1546 24.6333 24.6347C24.1524 25.1147 23.376 25.1227 22.8853 24.6525L18.2113 19.9826C16.2915 21.5189 13.8623 22.4442 11.221 22.4442C5.03725 22.4442 0 17.3989 0 11.2172ZM19.948 11.2172C19.948 6.38303 16.0569 2.49327 11.221 2.49327C6.38517 2.49327 2.4941 6.38303 2.4941 11.2172C2.4941 16.0515 6.38517 19.9509 11.221 19.9509C16.0569 19.9509 19.948 16.0515 19.948 11.2172Z" fill="url(#paint0_linear_1_3139)"/>
<defs>
<linearGradient id="paint0_linear_1_3139" x1="21.0888" y1="49.7431" x2="46.0421" y2="18.0429" gradientUnits="userSpaceOnUse">
<stop stop-color="#5C5E9B" stop-opacity="0.985973"/>
<stop offset="1" stop-color="#7CFAF7"/>
</linearGradient>
</defs>
</svg>
