<svg width="32" height="28" viewBox="0 0 32 28" fill="none" xmlns="http://www.w3.org/2000/svg">
<path d="M25.8832 12.5075H25.8181V11.1127C25.8181 6.63217 21.6671 3 16.5465 3C11.4259 3 7.27489 6.63217 7.27489 11.1127V12.5075H6.88453C5.45311 12.5075 4.34704 13.6176 4.34704 14.8986V18.4568C4.31098 19.6983 5.43206 20.7304 6.85097 20.7619C6.86217 20.7622 6.87332 20.7623 6.88453 20.7624H9.29188C9.63286 20.7484 9.89632 20.4951 9.88025 20.1968C9.87969 20.186 9.87876 20.1753 9.87745 20.1646V13.1906C9.87745 12.849 9.64974 12.5074 9.29188 12.5074H8.57617V11.1126C8.57617 7.26097 12.1446 4.13857 16.5465 4.13857C20.9484 4.13857 24.5168 7.26097 24.5168 11.1126V12.5074H23.8011C23.4433 12.5074 23.2156 12.849 23.2156 13.1906V20.1646C23.1792 20.4616 23.425 20.7282 23.7644 20.7599C23.7766 20.7611 23.7889 20.7619 23.8011 20.7624H24.5493L24.4843 20.8478C24.0028 21.4076 23.3786 21.8613 22.6613 22.1726C21.9439 22.484 21.1534 22.6444 20.3527 22.6411C19.9973 21.1161 18.2962 20.1319 16.5534 20.443C15.063 20.7089 13.9885 21.851 13.9764 23.1819C13.9943 24.7429 15.4456 26.0001 17.2296 26C18.1128 25.9875 18.9546 25.6703 19.5719 25.1176C19.9884 24.7444 20.2614 24.2667 20.3527 23.7512C21.3554 23.7545 22.3452 23.553 23.2432 23.1626C24.1412 22.7722 24.9226 22.2037 25.5253 21.5025L26.1434 20.7054C27.5423 20.62 28.4206 19.8515 28.4206 18.7413V15.1831C28.4207 13.9592 27.3797 12.5075 25.8832 12.5075ZM8.57617 19.6238H6.88453C6.18401 19.6089 5.62995 19.1 5.64701 18.487C5.64732 18.4769 5.64776 18.4668 5.64832 18.4567V14.8985C5.64832 14.2438 6.16882 13.646 6.88453 13.646H8.57617V19.6238ZM18.6286 24.3206C18.4502 24.4898 18.234 24.6252 17.9934 24.7182C17.7527 24.8113 17.4928 24.86 17.2297 24.8615C16.1713 24.8468 15.3123 24.1077 15.2778 23.182C15.2773 22.2544 16.1363 21.5022 17.1964 21.5019C18.2564 21.5015 19.1161 22.2531 19.1166 23.1806V23.182C19.1299 23.391 19.0935 23.6002 19.0095 23.7962C18.9255 23.9923 18.7957 24.1708 18.6286 24.3206ZM27.1194 18.7414C27.1194 19.5099 26.2735 19.6238 25.8832 19.6238H24.5168V13.6461H25.8832C26.5989 13.6461 27.1194 14.5285 27.1194 15.1832V18.7414Z" fill="black"/>
</svg>
