<svg width="32" height="31" viewBox="0 0 32 31" fill="none" xmlns="http://www.w3.org/2000/svg">
<circle cx="15.9998" cy="15.4666" r="15.2" fill="#5C5E9B"/>
<path d="M9.3502 22.1162H10.6802L18.8739 13.9225L17.5439 12.5925L9.3502 20.7862V22.1162ZM22.9352 12.545L18.8977 8.55496L20.2277 7.22496C20.5919 6.86079 21.0393 6.67871 21.57 6.67871C22.1008 6.67871 22.5479 6.86079 22.9114 7.22496L24.2414 8.55496C24.6056 8.91913 24.7956 9.35866 24.8114 9.87356C24.8273 10.3885 24.6531 10.8277 24.2889 11.1912L22.9352 12.545ZM8.4002 24.0162C8.13103 24.0162 7.90525 23.925 7.72285 23.7426C7.54045 23.5602 7.44957 23.3347 7.4502 23.0662V20.3825C7.4502 20.2558 7.47395 20.1329 7.52145 20.0139C7.56895 19.8948 7.6402 19.7881 7.7352 19.6937L17.5202 9.90871L21.5577 13.9462L11.7727 23.7312C11.6777 23.8262 11.571 23.8975 11.4525 23.945C11.3341 23.9925 11.2112 24.0162 11.0839 24.0162H8.4002ZM18.2089 13.2575L17.5439 12.5925L18.8739 13.9225L18.2089 13.2575Z" fill="white"/>
</svg>
