<svg width="22" height="24" viewBox="0 0 22 24" fill="none" xmlns="http://www.w3.org/2000/svg">
<path fill-rule="evenodd" clip-rule="evenodd" d="M8.863 23.1066C9.45353 23.6985 10.2446 24 11.0245 24C11.8045 24 12.5956 23.6985 13.1861 23.1066L15.0914 21.2192C15.5593 20.7613 16.2056 20.4933 16.8629 20.4933H17.7097C20.0161 20.4933 21.888 18.6282 21.888 16.3388V4.15446C21.888 1.86502 20.0161 0 17.7097 0H4.33937C2.03298 0 0.161133 1.86502 0.161133 4.15446V16.3388C0.161133 18.6282 2.03298 20.4933 4.33937 20.4933H5.18617C5.84354 20.4933 6.48974 20.7501 6.95771 21.2192L8.863 23.1066ZM1.83243 4.14328C1.83243 2.78079 2.95776 1.66402 4.33937 1.66402H17.7097C19.0913 1.66402 20.2167 2.76962 20.2167 4.14328V16.3276C20.2167 17.6901 19.0913 18.8069 17.7097 18.8069H16.8741C15.771 18.8069 14.7014 19.2536 13.9215 20.0242L12.0162 21.9116C11.4702 22.4476 10.59 22.4476 10.044 21.9116L8.13874 20.0242C7.3588 19.2536 6.28922 18.8069 5.18617 18.8069H4.33937C2.95776 18.8069 1.83243 17.7013 1.83243 16.3276V4.14328Z" fill="url(#paint0_linear_452_1239)"/>
<path fill-rule="evenodd" clip-rule="evenodd" d="M8.863 23.1066C9.45353 23.6985 10.2446 24 11.0245 24C11.8045 24 12.5956 23.6985 13.1861 23.1066L15.0914 21.2192C15.5593 20.7613 16.2056 20.4933 16.8629 20.4933H17.7097C20.0161 20.4933 21.888 18.6282 21.888 16.3388V4.15446C21.888 1.86502 20.0161 0 17.7097 0H4.33937C2.03298 0 0.161133 1.86502 0.161133 4.15446V16.3388C0.161133 18.6282 2.03298 20.4933 4.33937 20.4933H5.18617C5.84354 20.4933 6.48974 20.7501 6.95771 21.2192L8.863 23.1066ZM1.83243 4.14328C1.83243 2.78079 2.95776 1.66402 4.33937 1.66402H17.7097C19.0913 1.66402 20.2167 2.76962 20.2167 4.14328V16.3276C20.2167 17.6901 19.0913 18.8069 17.7097 18.8069H16.8741C15.771 18.8069 14.7014 19.2536 13.9215 20.0242L12.0162 21.9116C11.4702 22.4476 10.59 22.4476 10.044 21.9116L8.13874 20.0242C7.3588 19.2536 6.28922 18.8069 5.18617 18.8069H4.33937C2.95776 18.8069 1.83243 17.7013 1.83243 16.3276V4.14328Z" fill="url(#paint1_linear_452_1239)"/>
<path fill-rule="evenodd" clip-rule="evenodd" d="M7.59277 7.15844C7.59277 9.05699 9.13034 10.5982 11.0245 10.5982C12.9186 10.5982 14.4563 9.05699 14.4563 7.15844C14.4563 5.25988 12.9186 3.71875 11.0245 3.71875C9.13034 3.71875 7.59277 5.25988 7.59277 7.15844ZM9.26404 7.15844C9.26404 6.18682 10.0551 5.39395 11.0245 5.39395C11.9938 5.39395 12.785 6.18682 12.785 7.15844C12.785 8.13005 11.9938 8.923 11.0245 8.923C10.0551 8.923 9.26404 8.13005 9.26404 7.15844Z" fill="url(#paint2_linear_452_1239)" fill-opacity="0.2"/>
<path fill-rule="evenodd" clip-rule="evenodd" d="M7.59277 7.15844C7.59277 9.05699 9.13034 10.5982 11.0245 10.5982C12.9186 10.5982 14.4563 9.05699 14.4563 7.15844C14.4563 5.25988 12.9186 3.71875 11.0245 3.71875C9.13034 3.71875 7.59277 5.25988 7.59277 7.15844ZM9.26404 7.15844C9.26404 6.18682 10.0551 5.39395 11.0245 5.39395C11.9938 5.39395 12.785 6.18682 12.785 7.15844C12.785 8.13005 11.9938 8.923 11.0245 8.923C10.0551 8.923 9.26404 8.13005 9.26404 7.15844Z" fill="url(#paint3_linear_452_1239)"/>
<path d="M15.4816 16.9195C15.0248 16.9195 14.646 16.5398 14.646 16.0819C14.646 14.5407 13.0193 13.2787 11.0249 13.2787C9.03044 13.2787 7.40372 14.5407 7.40372 16.0819C7.40372 16.5398 7.02489 16.9195 6.56807 16.9195C6.11125 16.9195 5.73242 16.5398 5.73242 16.0819C5.73242 13.6138 8.10566 11.6035 11.0249 11.6035C13.944 11.6035 16.3173 13.6138 16.3173 16.0819C16.3173 16.5398 15.9385 16.9195 15.4816 16.9195Z" fill="url(#paint4_linear_452_1239)" fill-opacity="0.2"/>
<path d="M15.4816 16.9195C15.0248 16.9195 14.646 16.5398 14.646 16.0819C14.646 14.5407 13.0193 13.2787 11.0249 13.2787C9.03044 13.2787 7.40372 14.5407 7.40372 16.0819C7.40372 16.5398 7.02489 16.9195 6.56807 16.9195C6.11125 16.9195 5.73242 16.5398 5.73242 16.0819C5.73242 13.6138 8.10566 11.6035 11.0249 11.6035C13.944 11.6035 16.3173 13.6138 16.3173 16.0819C16.3173 16.5398 15.9385 16.9195 15.4816 16.9195Z" fill="url(#paint5_linear_452_1239)"/>
<defs>
<linearGradient id="paint0_linear_452_1239" x1="2.5" y1="2" x2="17.5" y2="19.5" gradientUnits="userSpaceOnUse">
<stop stop-color="#2C9BA2"/>
<stop offset="1" stop-color="#7CFAF7"/>
<stop offset="1" stop-color="#7CFAF7"/>
</linearGradient>
<linearGradient id="paint1_linear_452_1239" x1="11" y1="-2.00273e-10" x2="11" y2="24" gradientUnits="userSpaceOnUse">
<stop stop-color="#5C5E9B"/>
<stop offset="1" stop-color="#6DC3D2"/>
</linearGradient>
<linearGradient id="paint2_linear_452_1239" x1="11.0245" y1="3.71875" x2="11.0245" y2="10.5982" gradientUnits="userSpaceOnUse">
<stop stop-color="#5C5E9B"/>
<stop offset="1" stop-color="#6DC3D2"/>
</linearGradient>
<linearGradient id="paint3_linear_452_1239" x1="8.33163" y1="4.29204" x2="12.5486" y2="9.71398" gradientUnits="userSpaceOnUse">
<stop stop-color="#2C9BA2"/>
<stop offset="1" stop-color="#7CFAF7"/>
<stop offset="1" stop-color="#7CFAF7"/>
</linearGradient>
<linearGradient id="paint4_linear_452_1239" x1="11.0249" y1="11.6035" x2="11.0249" y2="16.9195" gradientUnits="userSpaceOnUse">
<stop stop-color="#5C5E9B"/>
<stop offset="1" stop-color="#6DC3D2"/>
</linearGradient>
<linearGradient id="paint5_linear_452_1239" x1="6.87187" y1="12.0465" x2="9.14678" y2="17.884" gradientUnits="userSpaceOnUse">
<stop stop-color="#2C9BA2"/>
<stop offset="1" stop-color="#7CFAF7"/>
<stop offset="1" stop-color="#7CFAF7"/>
</linearGradient>
</defs>
</svg>
