<svg width="22" height="24" viewBox="0 0 22 24" fill="none" xmlns="http://www.w3.org/2000/svg">
<path fill-rule="evenodd" clip-rule="evenodd" d="M8.7222 23.1066C9.3141 23.6985 10.107 24 10.8888 24C11.6705 24 12.4635 23.6985 13.0554 23.1066L14.9651 21.2192C15.4342 20.7613 16.0819 20.4933 16.7408 20.4933H17.5896C19.9014 20.4933 21.7776 18.6282 21.7776 16.3388V4.15446C21.7776 1.86502 19.9014 0 17.5896 0H4.188C1.87622 0 0 1.86502 0 4.15446V16.3388C0 18.6282 1.87622 20.4933 4.188 20.4933H5.03677C5.69569 20.4933 6.3434 20.7501 6.81245 21.2192L8.7222 23.1066ZM1.6752 4.14328C1.6752 2.78079 2.80317 1.66402 4.188 1.66402H17.5896C18.9744 1.66402 20.1024 2.76962 20.1024 4.14328V16.3276C20.1024 17.6901 18.9744 18.8069 17.5896 18.8069H16.752C15.6464 18.8069 14.5742 19.2536 13.7925 20.0242L11.8827 21.9116C11.3355 22.4476 10.4532 22.4476 9.90601 21.9116L7.99625 20.0242C7.21449 19.2536 6.14241 18.8069 5.03677 18.8069H4.188C2.80317 18.8069 1.6752 17.7013 1.6752 16.3276V4.14328Z" fill="#292D32"/>
<path fill-rule="evenodd" clip-rule="evenodd" d="M7.44922 7.15844C7.44922 9.05699 8.99038 10.5982 10.8889 10.5982C12.7875 10.5982 14.3288 9.05699 14.3288 7.15844C14.3288 5.25988 12.7875 3.71875 10.8889 3.71875C8.99038 3.71875 7.44922 5.25988 7.44922 7.15844ZM9.1244 7.15844C9.1244 6.18682 9.91732 5.39395 10.8889 5.39395C11.8606 5.39395 12.6536 6.18682 12.6536 7.15844C12.6536 8.13005 11.8606 8.923 10.8889 8.923C9.91732 8.923 9.1244 8.13005 9.1244 7.15844Z" fill="#292D32"/>
<path d="M15.356 16.9195C14.8981 16.9195 14.5184 16.5398 14.5184 16.0819C14.5184 14.5407 12.8879 13.2787 10.8888 13.2787C8.88971 13.2787 7.25918 14.5407 7.25918 16.0819C7.25918 16.5398 6.87947 16.9195 6.42158 16.9195C5.9637 16.9195 5.58398 16.5398 5.58398 16.0819C5.58398 13.6138 7.96277 11.6035 10.8888 11.6035C13.8148 11.6035 16.1936 13.6138 16.1936 16.0819C16.1936 16.5398 15.8139 16.9195 15.356 16.9195Z" fill="#292D32"/>
</svg>
